<svg width="357" height="181" viewBox="0 0 357 181" fill="none" xmlns="http://www.w3.org/2000/svg">
<path d="M101.76 20.104C104.736 31.336 98.16 42.616 82.032 53.944C78.096 56.728 73.728 59.416 68.928 62.008C73.056 63.448 76.176 65.848 78.288 69.208C81.456 74.104 82.224 80.008 80.592 86.92C78.96 93.832 75.36 100.024 69.792 105.496C60.576 114.52 50.688 119.032 40.128 119.032C30.336 119.032 21.072 115.48 12.336 108.376L9.312 113.56C8.352 115.192 6.96 116.008 5.136 116.008C4.272 116.008 3.456 115.768 2.688 115.288C1.536 114.616 0.815997 113.656 0.527997 112.408C0.143997 111.064 0.287997 109.768 0.959997 108.52L48.048 29.176C48.72 28.024 49.68 27.304 50.928 27.016C52.272 26.632 53.52 26.776 54.672 27.448C55.824 28.12 56.544 29.128 56.832 30.472C57.216 31.72 57.072 32.92 56.4 34.072L38.688 64.024C40.608 63.448 42.384 62.92 44.016 62.44C53.424 58.888 61.92 54.904 69.504 50.488C77.184 45.976 83.184 41.224 87.504 36.232C91.824 31.24 93.456 26.728 92.4 22.696C90.576 15.976 86.112 11.992 79.008 10.744C72.864 9.68799 65.52 10.504 56.976 13.192C48.528 15.784 40.704 19.432 33.504 24.136C26.304 28.744 21.024 33.496 17.664 38.392C16.896 39.448 15.84 40.12 14.496 40.408C13.152 40.6 11.904 40.312 10.752 39.544C9.696 38.776 9.024 37.768 8.736 36.52C8.544 35.176 8.832 33.928 9.6 32.776C13.632 27.016 19.728 21.448 27.888 16.072C36.048 10.696 45.024 6.56799 54.816 3.68799C64.608 0.711992 73.248 -0.104006 80.736 1.23999C91.872 3.15999 98.88 9.44799 101.76 20.104ZM70.224 74.536C66.96 69.544 59.232 68.632 47.04 71.8C42.816 73.336 38.592 74.728 34.368 75.976C33.408 76.264 32.448 76.264 31.488 75.976L17.376 100.024C18.432 100.984 19.632 101.992 20.976 103.048C22.416 104.104 24.816 105.352 28.176 106.792C31.536 108.136 34.848 108.952 38.112 109.24C41.472 109.528 45.408 108.856 49.92 107.224C54.432 105.496 58.8 102.616 63.024 98.584C66.864 94.744 69.456 90.52 70.8 85.912C72.24 81.208 72.048 77.416 70.224 74.536Z" fill="white"/>
<path d="M144.18 94.408C145.524 94.312 146.676 94.744 147.636 95.704C148.692 96.664 149.22 97.816 149.22 99.16C149.22 100.504 148.788 101.656 147.924 102.616C143.892 106.84 138.18 110.776 130.788 114.424C123.396 117.976 116.388 119.752 109.764 119.752C108.036 119.752 106.404 119.608 104.868 119.32C98.3404 118.168 93.8764 114.712 91.4764 108.952C89.1724 103.48 88.8364 97.672 90.4684 91.528C92.0044 85.384 95.3644 79.48 100.548 73.816C105.06 68.92 110.292 65.032 116.244 62.152C122.196 59.272 127.476 58.6 132.084 60.136C137.076 61.768 139.812 64.648 140.292 68.776C140.484 70.792 140.052 72.904 138.996 75.112C138.036 77.224 136.836 79.144 135.396 80.872C134.052 82.504 132.468 84.088 130.644 85.624C128.916 87.16 127.62 88.264 126.756 88.936C125.892 89.608 125.268 90.04 124.884 90.232C122.004 92.056 118.644 93.496 114.804 94.552C110.964 95.512 108.228 96.04 106.596 96.136C105.06 96.232 103.812 96.28 102.852 96.28C101.604 96.28 100.5 95.896 99.5404 95.128C98.8684 98.68 99.2044 102.04 100.548 105.208C101.604 107.704 103.62 109.24 106.596 109.816C111.396 110.68 117.3 109.624 124.308 106.648C131.412 103.576 136.932 99.976 140.868 95.848C141.732 94.888 142.836 94.408 144.18 94.408ZM107.748 80.44C105.924 82.36 104.388 84.424 103.14 86.632C109.572 86.344 115.14 84.76 119.844 81.88C122.052 80.536 124.356 78.568 126.756 75.976C129.252 73.288 130.548 71.32 130.644 70.072C130.26 69.88 129.732 69.64 129.06 69.352C128.58 69.256 128.004 69.208 127.332 69.208C124.836 69.208 121.716 70.216 117.972 72.232C114.324 74.248 110.916 76.984 107.748 80.44Z" fill="white"/>
<path d="M194.946 94.408C196.29 94.312 197.442 94.744 198.402 95.704C199.458 96.664 199.986 97.816 199.986 99.16C199.986 100.504 199.554 101.656 198.69 102.616C194.658 106.84 188.946 110.776 181.554 114.424C174.162 117.976 167.154 119.752 160.53 119.752C158.802 119.752 157.17 119.608 155.634 119.32C149.106 118.168 144.642 114.712 142.242 108.952C139.938 103.48 139.602 97.672 141.234 91.528C142.77 85.384 146.13 79.48 151.314 73.816C155.826 68.92 161.058 65.032 167.01 62.152C172.962 59.272 178.242 58.6 182.85 60.136C187.842 61.768 190.578 64.648 191.058 68.776C191.25 70.792 190.818 72.904 189.762 75.112C188.802 77.224 187.602 79.144 186.162 80.872C184.818 82.504 183.234 84.088 181.41 85.624C179.682 87.16 178.386 88.264 177.522 88.936C176.658 89.608 176.034 90.04 175.65 90.232C172.77 92.056 169.41 93.496 165.57 94.552C161.73 95.512 158.994 96.04 157.362 96.136C155.826 96.232 154.578 96.28 153.618 96.28C152.37 96.28 151.266 95.896 150.306 95.128C149.634 98.68 149.97 102.04 151.314 105.208C152.37 107.704 154.386 109.24 157.362 109.816C162.162 110.68 168.066 109.624 175.074 106.648C182.178 103.576 187.698 99.976 191.634 95.848C192.498 94.888 193.602 94.408 194.946 94.408ZM158.514 80.44C156.69 82.36 155.154 84.424 153.906 86.632C160.338 86.344 165.906 84.76 170.61 81.88C172.818 80.536 175.122 78.568 177.522 75.976C180.018 73.288 181.314 71.32 181.41 70.072C181.026 69.88 180.498 69.64 179.826 69.352C179.346 69.256 178.77 69.208 178.098 69.208C175.602 69.208 172.482 70.216 168.738 72.232C165.09 74.248 161.682 76.984 158.514 80.44Z" fill="white"/>
<path d="M245.712 94.408C247.056 94.312 248.208 94.744 249.168 95.704C250.224 96.664 250.752 97.816 250.752 99.16C250.752 100.504 250.32 101.656 249.456 102.616C245.424 106.84 239.712 110.776 232.32 114.424C224.928 117.976 217.92 119.752 211.296 119.752C209.568 119.752 207.936 119.608 206.4 119.32C199.872 118.168 195.408 114.712 193.008 108.952C190.704 103.48 190.368 97.672 192 91.528C193.536 85.384 196.896 79.48 202.08 73.816C206.592 68.92 211.824 65.032 217.776 62.152C223.728 59.272 229.008 58.6 233.616 60.136C238.608 61.768 241.344 64.648 241.824 68.776C242.016 70.792 241.584 72.904 240.528 75.112C239.568 77.224 238.368 79.144 236.928 80.872C235.584 82.504 234 84.088 232.176 85.624C230.448 87.16 229.152 88.264 228.288 88.936C227.424 89.608 226.8 90.04 226.416 90.232C223.536 92.056 220.176 93.496 216.336 94.552C212.496 95.512 209.76 96.04 208.128 96.136C206.592 96.232 205.344 96.28 204.384 96.28C203.136 96.28 202.032 95.896 201.072 95.128C200.4 98.68 200.736 102.04 202.08 105.208C203.136 107.704 205.152 109.24 208.128 109.816C212.928 110.68 218.832 109.624 225.84 106.648C232.944 103.576 238.464 99.976 242.4 95.848C243.264 94.888 244.368 94.408 245.712 94.408ZM209.28 80.44C207.456 82.36 205.92 84.424 204.672 86.632C211.104 86.344 216.672 84.76 221.376 81.88C223.584 80.536 225.888 78.568 228.288 75.976C230.784 73.288 232.08 71.32 232.176 70.072C231.792 69.88 231.264 69.64 230.592 69.352C230.112 69.256 229.536 69.208 228.864 69.208C226.368 69.208 223.248 70.216 219.504 72.232C215.856 74.248 212.448 76.984 209.28 80.44Z" fill="white"/>
<path d="M298.691 61.432C299.747 61.816 300.563 62.488 301.139 63.448C301.715 64.408 301.907 65.464 301.715 66.616C301.523 67.672 301.043 68.632 300.275 69.496L272.195 95.848C278.243 95.656 282.419 97.528 284.723 101.464C285.683 103.192 286.163 105.304 286.163 107.8C287.315 107.992 288.419 108.28 289.475 108.664C290.723 109.144 291.635 110.008 292.211 111.256C292.787 112.408 292.835 113.656 292.355 115C291.875 116.248 291.011 117.112 289.763 117.592C288.611 118.168 287.363 118.216 286.019 117.736C285.443 117.544 284.819 117.4 284.147 117.304C281.171 125.176 275.651 133.912 267.587 143.512C259.619 153.112 252.275 160.792 245.555 166.552C236.243 174.328 228.851 178.216 223.379 178.216C220.979 178.216 218.915 177.496 217.187 176.056C215.747 174.904 214.643 173.512 213.875 171.88C213.107 170.344 212.915 167.896 213.299 164.536C213.683 161.176 215.123 157.432 217.619 153.304C220.787 147.832 225.587 141.88 232.019 135.448C238.451 129.112 245.747 123.256 253.907 117.88C262.163 112.6 269.699 109.288 276.515 107.944C276.515 107.08 276.419 106.504 276.227 106.216C276.035 106.024 275.603 105.832 274.931 105.64C274.259 105.352 272.291 105.448 269.027 105.928C265.859 106.408 261.923 107.56 257.219 109.384C256.067 109.768 254.915 109.768 253.763 109.384C252.707 109 251.891 108.328 251.315 107.368C250.739 106.408 250.499 105.352 250.595 104.2C250.787 103.048 251.315 102.04 252.179 101.176L278.243 76.696L256.931 83.32C255.587 83.704 254.339 83.608 253.187 83.032C252.035 82.36 251.219 81.4 250.739 80.152C250.355 78.808 250.451 77.56 251.027 76.408C251.699 75.256 252.707 74.44 254.051 73.96L295.379 61.288C296.531 60.904 297.635 60.952 298.691 61.432ZM269.027 125.368C270.371 123.16 271.571 121.096 272.627 119.176C264.563 122.152 255.875 127.528 246.563 135.304C237.251 143.176 230.387 150.856 225.971 158.344C222.803 163.624 221.891 166.984 223.235 168.424C225.155 168.808 228.659 167.128 233.747 163.384C238.835 159.736 244.739 154.408 251.459 147.4C258.179 140.392 264.035 133.048 269.027 125.368Z" fill="white"/>
<path d="M347.76 106.216C348.624 106.504 349.344 106.936 349.92 107.512C350.592 108.088 351.024 108.808 351.216 109.672C351.504 110.44 351.552 111.256 351.36 112.12C351.072 113.464 350.352 114.472 349.2 115.144C348.048 115.912 346.8 116.104 345.456 115.72C344.784 115.624 343.776 115.72 342.432 116.008C334.848 130.312 326.016 143.56 315.936 155.752C305.856 168.04 297.072 175.72 289.584 178.792C287.28 179.752 285.168 180.232 283.248 180.232C279.888 180.232 277.104 179.032 274.896 176.632C269.904 171.256 270 164.152 275.184 155.32C280.08 146.968 288.864 137.896 301.536 128.104C314.112 118.312 325.44 111.64 335.52 108.088C338.592 102.232 341.04 96.808 342.864 91.816C323.568 112.84 310.368 120.52 303.264 114.856C301.44 113.416 300.384 111.4 300.096 108.808C299.808 106.024 300.576 102.424 302.4 98.008C304.224 93.592 306.72 88.984 309.888 84.184C313.152 79.288 315.936 75.256 318.24 72.088C320.64 68.824 322.944 65.752 325.152 62.872C326.016 61.816 327.12 61.24 328.464 61.144C329.808 60.952 331.008 61.288 332.064 62.152C333.12 63.016 333.696 64.12 333.792 65.464C333.984 66.808 333.648 68.008 332.784 69.064C326.64 76.744 321.312 84.28 316.8 91.672C312.288 99.064 309.936 104.152 309.744 106.936C312.72 106.264 317.952 102.424 325.44 95.416C332.928 88.408 340.416 80.296 347.904 71.08C349.344 69.352 351.12 68.872 353.232 69.64C355.44 70.312 356.544 71.752 356.544 73.96C356.832 81.736 353.76 92.488 347.328 106.216C347.424 106.216 347.568 106.216 347.76 106.216ZM285.84 169.864C291.216 167.656 297.744 162.088 305.424 153.16C313.104 144.232 320.4 134.056 327.312 122.632C318.672 127.528 310.128 133.432 301.68 140.344C293.232 147.352 287.184 153.976 283.536 160.216C280.848 164.92 280.368 168.184 282.096 170.008C282.672 170.68 283.92 170.632 285.84 169.864Z" fill="white"/>
</svg>
