<?xml version="1.0" encoding="utf-8"?>
<!-- Generator: Adobe Illustrator 24.3.0, SVG Export Plug-In . SVG Version: 6.00 Build 0)  -->
<svg version="1.1" id="Layer_1" xmlns:serif="http://www.serif.com/"
	 xmlns="http://www.w3.org/2000/svg" xmlns:xlink="http://www.w3.org/1999/xlink" x="0px" y="0px" viewBox="0 0 595.3 335.1"
	 style="enable-background:new 0 0 595.3 335.1;" xml:space="preserve">
<style type="text/css">
	.st0{fill:none;}
	.st1{clip-path:url(#SVGID_2_);}
	.st2{fill-rule:evenodd;clip-rule:evenodd;fill:#FFFFFF;fill-opacity:0.57;}
	.st3{fill-rule:evenodd;clip-rule:evenodd;fill:#B2DB69;}
	.st4{fill-rule:evenodd;clip-rule:evenodd;fill:#76A327;}
	.st5{fill-rule:evenodd;clip-rule:evenodd;fill:#C85225;}
	.st6{fill-rule:evenodd;clip-rule:evenodd;fill:#D16E19;}
	.st7{fill-rule:evenodd;clip-rule:evenodd;fill:#E57E25;}
	.st8{fill-rule:evenodd;clip-rule:evenodd;fill:#EE920E;}
	.st9{fill-rule:evenodd;clip-rule:evenodd;fill:#F29C1F;}
	.st10{fill-rule:evenodd;clip-rule:evenodd;fill:#BD4D23;}
	.st11{fill-rule:evenodd;clip-rule:evenodd;fill:#D95F32;}
	.st12{fill:#333E40;}
	.st13{fill-rule:evenodd;clip-rule:evenodd;fill:#D9D9D9;}
	.st14{fill:#F0F0F0;}
	.st15{fill-rule:evenodd;clip-rule:evenodd;fill:#F0F0F0;}
	.st16{fill:#D9D9D9;}
	.st17{fill:#FFCE1C;}
	.st18{fill:#FAA330;}
	.st19{fill:#3B484A;}
	.st20{fill-rule:evenodd;clip-rule:evenodd;fill:#FFCE1C;}
</style>
<rect id="Artboard1" y="-55.6" class="st0" width="595.3" height="446.2"/>
<g>
	<defs>
		<rect id="SVGID_1_" y="-55.6" width="595.3" height="446.2"/>
	</defs>
	<clipPath id="SVGID_2_">
		<use xlink:href="#SVGID_1_"  style="overflow:visible;"/>
	</clipPath>
	<g class="st1">
		<g transform="matrix(1.73024,0,0,1.74511,-1436.85,-1249.28)">
			<path class="st2" d="M1133.5,838c-32.9,68.7-262.5,7.4-269.1-2.8c-2.7-4.3-5.8-8.1-9.1-11.9c-21-24.5-35-41.5-15.8-70.3
				c32.5-48.7,190.5-20.4,239.5-6.2C1113.1,756.6,1155.1,793,1133.5,838z"/>
		</g>
		<g transform="matrix(2.85306,0,0,2.85306,-4633.13,-1994.2)">
			<path class="st3" d="M1700,809.9c26.1,3.7,65.3-12.4,87.3-21.7c17.2-7.2,50.5-23.4,44.6-33.8c-5.9-10.3-51.8-29.9-80.1-28.3
				c-33.6,1.9-112.6,26-121.2,39.9C1621.9,780.1,1673.9,806.3,1700,809.9z"/>
		</g>
		<g transform="matrix(2.73343,0,0,2.85265,-4376.79,-2146.7)">
			<path class="st4" d="M1674.3,804.9l20.5,5.3l28.8-8.4l-15.8-6.7L1674.3,804.9z"/>
		</g>
		<g id="Hive" transform="matrix(2.21844,0,0,2.21844,-2984.91,-1364.16)">
			<g id="feet">
				<g>
					<g transform="matrix(1,0,0,1,7.6897,-6.67708)">
						<path class="st5" d="M1433,683.9l0,3.6l3.4,0.9l0-3.6L1433,683.9z"/>
					</g>
					<path class="st5" d="M1444.1,681.8l3.4-0.9l0-3.7c-1.1,0.3-2.3,0.6-3.4,0.9L1444.1,681.8z"/>
				</g>
				<g transform="matrix(1,0,0,1,54.2562,14.5379)">
					<g transform="matrix(1,0,0,1,7.6897,-6.67708)">
						<path class="st5" d="M1390.6,672.5l0,3.6l3.4,0.9l0-3.6L1390.6,672.5z"/>
					</g>
					<path class="st5" d="M1401.7,670.4l3.4-0.9l0-3.7c-1.1,0.3-2.3,0.6-3.4,0.9L1401.7,670.4z"/>
				</g>
			</g>
			<g id="body" transform="matrix(1,0,0,1,-3.48819,-0.951752)">
				<g transform="matrix(1,0,0,1,-4.00124e-13,96.3266)">
					<path class="st6" d="M1462.1,583.1l30.6-8.1l1.6,5.9L1464,589"/>
				</g>
				<g transform="matrix(1,0,0,1,-4.00124e-13,96.3266)">
					<path class="st7" d="M1464,589l-23.7-6.4l1.7-5l20.1,5.5"/>
				</g>
				<g transform="matrix(1,0,0,1,-3.73035e-13,71.7699)">
					<path class="st8" d="M1462.1,602.3l30.6-8.1l1.6,5.9l-30.4,8.1"/>
				</g>
				<g transform="matrix(1,0,0,1,-3.73035e-13,71.7699)">
					<path class="st9" d="M1464,608.2L1464,608.2l-23.7-6.4l1.7-5l20.1,5.5"/>
				</g>
				<g transform="matrix(1,0,0,1,0,48.2273)">
					<path class="st6" d="M1462.1,620.7l30.6-8.1l1.6,5.9l-30.4,8.1"/>
				</g>
				<g transform="matrix(1,0,0,1,0,48.2273)">
					<path class="st7" d="M1464,626.6L1464,626.6l-23.7-6.4l1.7-5l20.1,5.5"/>
				</g>
				<g transform="matrix(1,0,0,1,0,23.7319)">
					<path class="st9" d="M1464,645.7l-23.7-6.4l1.7-5l20.1,5.5"/>
				</g>
				<g transform="matrix(1,0,0,1,0,23.7319)">
					<path class="st8" d="M1462.1,639.9l30.6-8.1l1.6,5.9l-30.4,8.1l0,0"/>
				</g>
				<path class="st6" d="M1462.1,658.4l30.6-8.1l1.6,5.9l-30.4,8.1"/>
				<path class="st7" d="M1464,664.3L1464,664.3l-23.7-6.4l1.7-5l20.1,5.5"/>
			</g>
			<g id="head">
				<path class="st5" d="M1435.6,652.2v-1.8l25.5,6.8l0.1,1.9L1435.6,652.2z"/>
				<path class="st10" d="M1493.6,649.5l-0.1-1.9l-32.3,9.6l0.1,1.9L1493.6,649.5z"/>
				<path class="st11" d="M1493.3,647.7l-32.1,9.5l-25.5-6.8l32.4-9.4L1493.3,647.7z"/>
			</g>
		</g>
		<g transform="matrix(2.73343,0,0,2.85265,-3437.84,-2032.08)">
			<path class="st4" d="M1407.7,775.3l25.5,6.5l28.6-9.2l-16.6-6.4L1407.7,775.3z"/>
		</g>
		<g id="Hive1" transform="matrix(2.55181,0,0,2.55181,-2607.81,-1561.8)" serif:id="Hive">
			<g id="feet1" serif:id="feet">
				<g>
					<g transform="matrix(1,0,0,1,7.6897,-6.67708)">
						<path class="st5" d="M1180,684.9l0,3.6l3.4,0.9l0-3.6L1180,684.9z"/>
					</g>
					<path class="st5" d="M1191.1,682.8l3.4-0.9l0-3.7c-1.1,0.3-2.3,0.6-3.4,0.9L1191.1,682.8z"/>
				</g>
				<g transform="matrix(1,0,0,1,54.2562,14.5379)">
					<g transform="matrix(1,0,0,1,7.6897,-6.67708)">
						<path class="st5" d="M1137.5,673.5l0,3.6l3.4,0.9l0-3.6L1137.5,673.5z"/>
					</g>
					<path class="st5" d="M1148.6,671.4l3.4-0.9l0-3.7c-1.1,0.3-2.3,0.6-3.4,0.9L1148.6,671.4z"/>
				</g>
			</g>
			<g id="body1" transform="matrix(1,0,0,1,-3.48819,-0.951752)" serif:id="body">
				<g transform="matrix(1,0,0,1,-4.00124e-13,96.3266)">
					<path class="st6" d="M1209.1,584.1l30.6-8.1l1.6,5.9l-30.4,8.1"/>
				</g>
				<g transform="matrix(1,0,0,1,-4.00124e-13,96.3266)">
					<path class="st7" d="M1210.9,590l-23.7-6.4l1.7-5l20.1,5.5"/>
				</g>
				<g transform="matrix(1,0,0,1,-3.73035e-13,71.7699)">
					<path class="st8" d="M1209.1,603.3l30.6-8.1l1.6,5.9l-30.4,8.1"/>
				</g>
				<g transform="matrix(1,0,0,1,-3.73035e-13,71.7699)">
					<path class="st9" d="M1210.9,609.2L1210.9,609.2l-23.7-6.4l1.7-5l20.1,5.5"/>
				</g>
				<g transform="matrix(1,0,0,1,0,48.2273)">
					<path class="st6" d="M1209.1,621.7l30.6-8.1l1.6,5.9l-30.4,8.1"/>
				</g>
				<g transform="matrix(1,0,0,1,0,48.2273)">
					<path class="st7" d="M1210.9,627.6L1210.9,627.6l-23.7-6.4l1.7-5l20.1,5.5"/>
				</g>
				<g transform="matrix(1,0,0,1,0,23.7319)">
					<path class="st9" d="M1210.9,646.7l-23.7-6.4l1.7-5l20.1,5.5"/>
				</g>
				<g transform="matrix(1,0,0,1,0,23.7319)">
					<path class="st8" d="M1209.1,640.9l30.6-8.1l1.6,5.9l-30.4,8.1l0,0"/>
				</g>
				<path class="st6" d="M1209.1,659.5l30.6-8.1l1.6,5.9l-30.4,8.1"/>
				<path class="st7" d="M1210.9,665.3L1210.9,665.3l-23.7-6.4l1.7-5l20.1,5.5"/>
			</g>
			<g id="head1" serif:id="head">
				<path class="st5" d="M1182.6,653.2v-1.8l25.5,6.8l0.1,1.9L1182.6,653.2z"/>
				<path class="st10" d="M1240.5,650.5l-0.1-1.9l-32.3,9.6l0.1,1.9L1240.5,650.5z"/>
				<path class="st11" d="M1240.2,648.7l-32.1,9.5l-25.5-6.8l32.4-9.4L1240.2,648.7z"/>
			</g>
		</g>
		<g transform="matrix(2.73343,0,0,2.85265,-4558.75,-1559.63)">
			<path class="st4" d="M1727.3,643.1l23.2,7.1l37.3-9.6l-21.9-5.4L1727.3,643.1z"/>
		</g>
		<g id="Hive2" transform="matrix(2.85306,0,0,2.85306,-4295.98,-1435.19)" serif:id="Hive">
			<g id="feet2" serif:id="feet">
				<g>
					<g transform="matrix(1,0,0,1,7.6897,-6.67708)">
						<path class="st5" d="M1558.4,601.9l0,3.6l3.4,0.9l0-3.6L1558.4,601.9z"/>
					</g>
					<path class="st5" d="M1569.5,599.8l3.4-0.9l0-3.7c-1.1,0.3-2.3,0.6-3.4,0.9L1569.5,599.8z"/>
				</g>
				<g transform="matrix(1,0,0,1,54.2562,14.5379)">
					<g transform="matrix(1,0,0,1,7.6897,-6.67708)">
						<path class="st5" d="M1515.9,590.6l0,3.6l3.4,0.9l0-3.6L1515.9,590.6z"/>
					</g>
					<path class="st5" d="M1527,588.4l3.4-0.9l0-3.7c-1.1,0.3-2.3,0.6-3.4,0.9L1527,588.4z"/>
				</g>
			</g>
			<g id="body2" transform="matrix(1,0,0,1,-3.48819,-0.951752)" serif:id="body">
				<g transform="matrix(1,0,0,1,-4.00124e-13,96.3266)">
					<path class="st6" d="M1587.4,501.2l30.6-8.1l1.6,5.9l-30.4,8.1"/>
				</g>
				<g transform="matrix(1,0,0,1,-4.00124e-13,96.3266)">
					<path class="st7" d="M1589.3,507l-23.7-6.4l1.7-5l20.1,5.5"/>
				</g>
				<g transform="matrix(1,0,0,1,-3.73035e-13,71.7699)">
					<path class="st8" d="M1587.4,520.4l30.6-8.1l1.6,5.9l-30.4,8.1"/>
				</g>
				<g transform="matrix(1,0,0,1,-3.73035e-13,71.7699)">
					<path class="st9" d="M1589.3,526.3L1589.3,526.3l-23.7-6.4l1.7-5l20.1,5.5"/>
				</g>
				<g transform="matrix(1,0,0,1,0,48.2273)">
					<path class="st6" d="M1587.4,538.8l30.6-8.1l1.6,5.9l-30.4,8.1"/>
				</g>
				<g transform="matrix(1,0,0,1,0,48.2273)">
					<path class="st7" d="M1589.3,544.7L1589.3,544.7l-23.7-6.4l1.7-5l20.1,5.5"/>
				</g>
				<g transform="matrix(1,0,0,1,0,23.7319)">
					<path class="st9" d="M1589.3,563.8l-23.7-6.4l1.7-5l20.1,5.5"/>
				</g>
				<g transform="matrix(1,0,0,1,0,23.7319)">
					<path class="st8" d="M1587.4,557.9l30.6-8.1l1.6,5.9l-30.4,8.1l0,0"/>
				</g>
				<path class="st6" d="M1587.4,576.5l30.6-8.1l1.6,5.9l-30.4,8.1"/>
				<path class="st7" d="M1589.3,582.4L1589.3,582.4l-23.7-6.4l1.7-5l20.1,5.5"/>
			</g>
			<g id="head2" serif:id="head">
				<path class="st5" d="M1561,570.3v-1.8l25.5,6.8l0.1,1.9L1561,570.3z"/>
				<path class="st10" d="M1618.9,567.6l-0.1-1.9l-32.3,9.6l0.1,1.9L1618.9,567.6z"/>
				<path class="st11" d="M1618.6,565.8l-32.1,9.5l-25.5-6.8l32.4-9.4L1618.6,565.8z"/>
			</g>
		</g>
		<g id="bee" transform="matrix(-0.376036,0,0,0.376036,415.99,634.323)">
			<g transform="matrix(1,0,0,1,-256,-256)">
				<g>
					<path class="st12" d="M1144.4-1230.3L1144.4-1230.3c-0.9,0-1.7-0.8-1.7-1.7c0-0.5,0.1-12,6.6-19.9c0.6-0.7,1.7-0.8,2.4-0.2
						c0.7,0.6,0.8,1.7,0.2,2.4c-5.8,7-5.9,17.7-5.9,17.8C1146.1-1231,1145.3-1230.3,1144.4-1230.3z"/>
					<path class="st12" d="M1158.2-1227.4L1158.2-1227.4c-0.9,0-1.7-0.8-1.7-1.7c0-0.5,0.1-12,6.6-19.9c0.6-0.7,1.7-0.8,2.4-0.2
						c0.7,0.6,0.8,1.7,0.2,2.4c-5.8,7-5.9,17.7-5.9,17.8C1159.9-1228.2,1159.1-1227.4,1158.2-1227.4z"/>
					<path class="st12" d="M1066.1-1201.9c-0.9,0.2-0.9,1.5,0,1.7l13.8,4.3v-10.4L1066.1-1201.9z"/>
				</g>
				<g transform="matrix(-0.2905,0.9569,-0.9569,-0.2905,437.227,-118.634)">
					
						<ellipse transform="matrix(2.901225e-06 1 -1 2.901225e-06 -1605.1484 947.5239)" class="st13" cx="-1276.3" cy="-328.8" rx="13.1" ry="-14.1"/>
				</g>
				<g>
					<path class="st14" d="M1117.3-1234.5c-0.1,0-0.2,0-0.3,0c-0.9-0.2-1.5-1.1-1.3-2c0.1-0.4,1.9-9.9,7.8-15.6
						c0.7-0.7,1.7-0.6,2.4,0c0.7,0.7,0.6,1.7,0,2.4c-5.1,5-6.8,13.8-6.8,13.9C1118.8-1235,1118.1-1234.5,1117.3-1234.5z"/>
					<g transform="matrix(-0.2905,-0.9569,0.9569,-0.2905,74.6679,296.312)">
						
							<ellipse transform="matrix(0.8312 0.5559 -0.5559 0.8312 990.3318 -411.8434)" class="st15" cx="1173.5" cy="1425.2" rx="16.1" ry="-14.9"/>
					</g>
				</g>
				<path class="st16" d="M1103.6-1229.4c-0.8,0-1.5-0.6-1.7-1.4c0-0.1-2-10.2-7.9-16c-0.7-0.7-0.7-1.7,0-2.4c0.6-0.7,1.7-0.7,2.4,0
					c6.6,6.5,8.7,17.3,8.8,17.7c0.2,0.9-0.4,1.8-1.3,2C1103.8-1229.4,1103.7-1229.4,1103.6-1229.4z"/>
				<path class="st17" d="M1108.8-1192.6v-20.2l8.9-17.4l-1.9-7c-6.5,1.2-12.4,3.3-17.6,6.2l-9.2,6.4l-5.2,16.4v15.5l6.4,14.8l8,7
					c5.2,2.8,11.2,5,17.6,6.2l3.2-7.7L1108.8-1192.6z"/>
				<path class="st18" d="M1118.4-1171.1c-0.9-0.1-1.8-0.3-2.6-0.4c-6.5-1.2-12.4-3.3-17.6-6.2c-4.6-2.5-8.5-5.5-11.7-8.9l3.7,8.6
					l8,7c0.3,0.2,0.7,0.4,1,0.5c1,0.5,2,1,3.1,1.5c2.8,1.2,5.8,2.3,8.8,3.1c1.5,0.4,3.1,0.8,4.8,1.1L1118.4-1171.1z"/>
				<g>
					<path class="st19" d="M1088.7-1201c0,11.2,3.5,21.6,9.4,30.1c-12.5-6.8-20.6-17.7-20.6-30.1c0-12.3,8.1-23.3,20.6-30.1
						C1092.2-1222.6,1088.7-1212.2,1088.7-1201z"/>
					<path class="st19" d="M1171.7-1183.7c-5.4,8.3-14.7,14.7-26.5,17.9c-5.2,1.4-10.9,2.2-16.9,2.2c-4.4,0-8.6-0.4-12.6-1.2
						c-8.9-9.4-14.4-22.1-14.4-36.2c0-14.1,5.5-26.9,14.4-36.2c4-0.8,8.3-1.2,12.6-1.2c13.7,0,25.6,4,34.2,10.5
						c2.5,1.9,4.8,4,6.7,6.3L1171.7-1183.7z"/>
				</g>
				<path class="st12" d="M1145.2-1172.6c-5.2,1.4-10.9,2.2-16.9,2.2c-4.4,0-8.6-0.4-12.6-1.2c-2.2-0.4-4.3-0.9-6.4-1.5
					c1.9,3,4,5.8,6.4,8.3c0.5,0.1,1,0.2,1.5,0.3c9.3,1.5,18.9,1.2,28-1.3c9.5-2.6,18.7-7.7,24.8-15.6c0.6-0.7,1.1-1.5,1.6-2.3
					l-0.4-6.2C1165.8-1181.9,1156.7-1175.7,1145.2-1172.6z"/>
				<path class="st17" d="M1177-1201c0,6.1-1.9,12.2-5.3,17.3c-13.1,19.9-44.1,18.6-55-3.7c-2.1-4.2-3.2-8.8-3.2-13.7
					c0-6.7,2.2-13,6-18.4c7.5-10.6,22.8-12.1,32-3.1c0.1,0.1,0.3,0.3,0.4,0.4c0.1-0.1,0.3-0.3,0.4-0.4c0,0,0.1-0.1,0.1-0.1
					c4.8-4.6,12.5-4.2,16.8,1C1174.1-1215.8,1176.9-1208.6,1177-1201z"/>
				<path class="st18" d="M1177-1201.8c0-0.8-0.1-1.6-0.2-2.4c-0.6,4.9-2.4,9.7-5.1,13.8c-5.4,8.3-14.7,14.7-26.5,17.9
					c-2.8,0.8-5.7,1.3-8.7,1.7c12.7,3.5,27.2-0.8,35.2-12.9c3.1-4.6,4.9-10.1,5.2-15.6C1177-1200.2,1177-1201,1177-1201.8z"/>
				<path class="st12" d="M1077.7-1204.4c0,0.3-0.1,0.6-0.1,1c0,0.1,0,0.2,0,0.3c-0.3,3.3,0.1,6.7,1,9.9c1.9,6.4,6,12,11,16.4
					c2.5,2.2,5.4,4.1,8.5,5.8c-2.2-3.2-4.1-6.6-5.5-10.2C1084.3-1187.2,1078.8-1195.3,1077.7-1204.4z"/>
				<circle class="st20" cx="1150.6" cy="-1250.8" r="4"/>
				<path class="st18" d="M1154.4-1251.9c-0.4,1.5-1.7,2.6-3.3,2.8c-2,0.2-3.7-1-4.3-2.8c-0.2,0.5-0.2,1.1-0.1,1.6
					c0.3,2.2,2.2,3.7,4.4,3.4c2.2-0.3,3.7-2.2,3.4-4.4C1154.6-1251.5,1154.5-1251.7,1154.4-1251.9z"/>
				<circle class="st20" cx="1164.4" cy="-1248" r="4"/>
				<path class="st18" d="M1168.2-1249.1c-0.4,1.5-1.7,2.6-3.3,2.8c-2,0.2-3.7-1-4.3-2.8c-0.2,0.5-0.2,1.1-0.1,1.6
					c0.3,2.2,2.2,3.7,4.4,3.4c2.2-0.3,3.7-2.2,3.4-4.4C1168.3-1248.7,1168.3-1248.9,1168.2-1249.1z"/>
			</g>
		</g>
		<g id="bee1" transform="matrix(-0.0755236,-0.0237308,-0.0237308,0.0755236,1169.34,975.754)" serif:id="bee">
			<g transform="matrix(1,0,0,1,-256,-256)">
				<g>
					<path class="st12" d="M14400.6-6166.3L14400.6-6166.3c-0.9,0-1.7-0.8-1.7-1.7c0-0.5,0.1-12,6.6-19.9c0.6-0.7,1.7-0.8,2.4-0.2
						c0.7,0.6,0.8,1.7,0.2,2.4c-5.8,7-5.9,17.7-5.9,17.8C14402.2-6167,14401.5-6166.3,14400.6-6166.3z"/>
					<path class="st12" d="M14414.4-6163.5L14414.4-6163.5c-0.9,0-1.7-0.8-1.7-1.7c0-0.5,0.1-12,6.6-19.9c0.6-0.7,1.7-0.8,2.4-0.2
						c0.7,0.6,0.8,1.7,0.2,2.4c-5.8,7-5.9,17.7-5.9,17.8C14416-6164.2,14415.3-6163.5,14414.4-6163.5z"/>
					<path class="st12" d="M14322.3-6137.9c-0.9,0.2-0.9,1.5,0,1.7l13.8,4.3v-10.4L14322.3-6137.9z"/>
				</g>
				<g transform="matrix(-0.2905,0.9569,-0.9569,-0.2905,437.227,-118.634)">
					<ellipse class="st13" cx="-9850.2" cy="-11579.2" rx="14.1" ry="-13.1"/>
				</g>
				<g>
					<path class="st14" d="M14373.5-6170.5c-0.1,0-0.2,0-0.3,0c-0.9-0.2-1.5-1.1-1.3-2c0.1-0.4,1.9-9.9,7.8-15.6
						c0.7-0.7,1.7-0.6,2.4,0c0.7,0.7,0.6,1.7,0,2.4c-5.1,5-6.8,13.8-6.8,13.9C14375-6171.1,14374.3-6170.5,14373.5-6170.5z"/>
					<g transform="matrix(-0.2905,-0.9569,0.9569,-0.2905,74.6679,296.312)">
						
							<ellipse transform="matrix(0.8312 0.5559 -0.5559 0.8312 8986.2178 1485.9161)" class="st15" cx="2045.8" cy="15543.2" rx="16.1" ry="-14.9"/>
					</g>
				</g>
				<path class="st16" d="M14359.8-6165.5c-0.8,0-1.5-0.6-1.7-1.4c0-0.1-2-10.2-7.9-16c-0.7-0.6-0.7-1.7,0-2.4
					c0.6-0.7,1.7-0.7,2.4,0c6.6,6.5,8.7,17.3,8.8,17.7c0.2,0.9-0.4,1.8-1.3,2C14360-6165.5,14359.9-6165.5,14359.8-6165.5z"/>
				<path class="st17" d="M14365-6128.7v-20.2l8.9-17.4l-1.9-7c-6.5,1.2-12.4,3.3-17.6,6.2l-9.2,6.4l-5.2,16.4v15.5l6.4,14.8l8,7
					c5.2,2.8,11.2,5,17.6,6.2l3.2-7.7L14365-6128.7z"/>
				<path class="st18" d="M14374.6-6107.1c-0.9-0.1-1.8-0.3-2.6-0.4c-6.5-1.2-12.4-3.3-17.6-6.2c-4.6-2.5-8.5-5.5-11.7-8.9l3.7,8.6
					l8,7c0.3,0.2,0.7,0.4,1,0.5c1,0.5,2,1,3.1,1.5c2.8,1.2,5.8,2.3,8.8,3.1c1.5,0.4,3.1,0.8,4.8,1.1L14374.6-6107.1z"/>
				<g>
					<path class="st19" d="M14344.9-6137.1c0,11.2,3.5,21.6,9.4,30.1c-12.5-6.8-20.6-17.7-20.6-30.1c0-12.3,8.1-23.3,20.6-30.1
						C14348.4-6158.7,14344.9-6148.3,14344.9-6137.1z"/>
					<path class="st19" d="M14427.9-6119.8c-5.4,8.3-14.7,14.7-26.5,17.9c-5.2,1.4-10.9,2.2-16.9,2.2c-4.4,0-8.6-0.4-12.6-1.2
						c-8.9-9.4-14.4-22.1-14.4-36.2c0-14.1,5.5-26.9,14.4-36.2c4-0.8,8.3-1.2,12.6-1.2c13.7,0,25.6,4,34.2,10.5
						c2.5,1.9,4.8,4,6.7,6.3L14427.9-6119.8z"/>
				</g>
				<path class="st12" d="M14401.4-6108.6c-5.2,1.4-10.9,2.2-16.9,2.2c-4.4,0-8.6-0.4-12.6-1.2c-2.2-0.4-4.3-0.9-6.4-1.5
					c1.9,3,4,5.8,6.4,8.3c0.5,0.1,1,0.2,1.5,0.3c9.3,1.5,18.9,1.2,28-1.3c9.5-2.6,18.7-7.7,24.8-15.6c0.6-0.7,1.1-1.5,1.6-2.3
					l-0.4-6.2C14422-6117.9,14412.9-6111.7,14401.4-6108.6z"/>
				<path class="st17" d="M14433.2-6137.1c0,6.1-1.9,12.2-5.3,17.3c-13.1,19.9-44.1,18.6-55-3.7c-2.1-4.2-3.2-8.8-3.2-13.7
					c0-6.7,2.2-13,6-18.4c7.5-10.6,22.8-12.1,32-3.1c0.1,0.1,0.3,0.3,0.4,0.4c0.1-0.1,0.3-0.3,0.4-0.4c0,0,0.1-0.1,0.1-0.1
					c4.8-4.6,12.5-4.2,16.8,1C14430.3-6151.9,14433.1-6144.7,14433.2-6137.1z"/>
				<path class="st18" d="M14433.2-6137.9c0-0.8-0.1-1.6-0.2-2.4c-0.6,4.9-2.4,9.7-5.1,13.8c-5.4,8.3-14.7,14.7-26.5,17.9
					c-2.8,0.8-5.7,1.3-8.7,1.7c12.7,3.5,27.2-0.8,35.2-12.9c3.1-4.6,4.9-10.1,5.2-15.6C14433.2-6136.2,14433.2-6137,14433.2-6137.9z
					"/>
				<path class="st12" d="M14333.9-6140.4c0,0.3-0.1,0.6-0.1,1c0,0.1,0,0.2,0,0.3c-0.3,3.3,0.1,6.7,1,9.9c1.9,6.4,6,12,11,16.4
					c2.5,2.2,5.4,4.1,8.5,5.8c-2.2-3.2-4.1-6.6-5.5-10.2C14340.4-6123.3,14335-6131.4,14333.9-6140.4z"/>
				<circle class="st20" cx="14406.8" cy="-6186.8" r="4"/>
				<path class="st18" d="M14410.6-6187.9c-0.4,1.5-1.7,2.6-3.3,2.8c-2,0.2-3.7-1-4.3-2.8c-0.2,0.5-0.2,1.1-0.1,1.6
					c0.3,2.2,2.2,3.7,4.4,3.4s3.7-2.2,3.4-4.4C14410.7-6187.5,14410.7-6187.7,14410.6-6187.9z"/>
				<circle class="st20" cx="14420.6" cy="-6184" r="4"/>
				<path class="st18" d="M14424.4-6185.1c-0.4,1.5-1.7,2.6-3.3,2.8c-2,0.2-3.7-1-4.3-2.8c-0.2,0.5-0.2,1.1-0.1,1.6
					c0.3,2.2,2.2,3.7,4.4,3.4s3.7-2.2,3.4-4.4C14424.5-6184.7,14424.5-6184.9,14424.4-6185.1z"/>
			</g>
		</g>
		<g id="bee2" transform="matrix(-0.05566,0.0371042,0.0371042,0.05566,1176.38,729.675)" serif:id="bee">
			<g transform="matrix(1,0,0,1,-256,-256)">
				<g>
					<path class="st12" d="M6530.8-15181.8L6530.8-15181.8c-0.9,0-1.7-0.8-1.7-1.7c0-0.5,0.1-12,6.6-19.9c0.6-0.7,1.7-0.8,2.4-0.2
						c0.7,0.6,0.8,1.7,0.2,2.4c-5.8,7-5.9,17.7-5.9,17.8C6532.5-15182.6,6531.7-15181.8,6530.8-15181.8z"/>
					<path class="st12" d="M6544.6-15179L6544.6-15179c-0.9,0-1.7-0.8-1.7-1.7c0-0.5,0.1-12,6.6-19.9c0.6-0.7,1.7-0.8,2.4-0.2
						c0.7,0.6,0.8,1.7,0.2,2.4c-5.8,7-5.9,17.7-5.9,17.8C6546.3-15179.8,6545.5-15179,6544.6-15179z"/>
					<path class="st12" d="M6452.5-15153.5c-0.9,0.2-0.9,1.5,0,1.7l13.8,4.3v-10.4L6452.5-15153.5z"/>
				</g>
				<g transform="matrix(-0.2905,0.9569,-0.9569,-0.2905,437.227,-118.634)">
					
						<ellipse transform="matrix(5.410930e-06 1 -1 5.410930e-06 -17620.6426 14760.583)" class="st13" cx="-16190.7" cy="-1430.1" rx="13.1" ry="-14.1"/>
				</g>
				<g>
					<path class="st14" d="M6503.7-15186c-0.1,0-0.2,0-0.3,0c-0.9-0.2-1.5-1.1-1.3-2c0.1-0.4,1.9-9.9,7.8-15.6
						c0.7-0.6,1.7-0.6,2.4,0c0.6,0.7,0.6,1.7,0,2.4c-5.1,5-6.8,13.8-6.8,13.9C6505.2-15186.6,6504.5-15186,6503.7-15186z"/>
					<g transform="matrix(-0.2905,-0.9569,0.9569,-0.2905,74.6679,296.312)">
						
							<ellipse transform="matrix(-0.5559 0.8312 -0.8312 -0.5559 28999.9473 5771.0288)" class="st15" cx="12958.4" cy="10631.9" rx="14.9" ry="-16.1"/>
					</g>
				</g>
				<path class="st16" d="M6490-15181c-0.8,0-1.5-0.6-1.7-1.4c0-0.1-2-10.2-7.9-16c-0.7-0.7-0.7-1.7,0-2.4c0.6-0.7,1.7-0.7,2.4,0
					c6.6,6.5,8.7,17.3,8.8,17.7c0.2,0.9-0.4,1.8-1.3,2C6490.2-15181,6490.1-15181,6490-15181z"/>
				<path class="st17" d="M6495.2-15144.2v-20.2l8.9-17.4l-1.9-7c-6.5,1.2-12.4,3.3-17.6,6.2l-9.2,6.4l-5.2,16.4v15.5l6.4,14.8l8,7
					c5.2,2.8,11.2,5,17.6,6.2l3.2-7.7L6495.2-15144.2z"/>
				<path class="st18" d="M6504.8-15122.7c-0.9-0.1-1.8-0.3-2.6-0.4c-6.5-1.2-12.4-3.3-17.6-6.2c-4.6-2.5-8.5-5.5-11.7-8.9l3.8,8.6
					l8,7c0.3,0.2,0.7,0.4,1,0.5c1,0.5,2,1,3.1,1.5c2.8,1.2,5.8,2.3,8.8,3.1c1.5,0.4,3.1,0.8,4.8,1.1L6504.8-15122.7z"/>
				<g>
					<path class="st19" d="M6475.1-15152.6c0,11.2,3.5,21.6,9.4,30.1c-12.5-6.8-20.6-17.7-20.6-30.1c0-12.3,8.1-23.3,20.6-30.1
						C6478.6-15174.2,6475.1-15163.8,6475.1-15152.6z"/>
					<path class="st19" d="M6558.1-15135.3c-5.4,8.3-14.7,14.7-26.5,17.9c-5.2,1.4-10.9,2.2-16.9,2.2c-4.4,0-8.6-0.4-12.6-1.2
						c-8.9-9.4-14.4-22.1-14.4-36.2c0-14.1,5.5-26.9,14.4-36.2c4-0.8,8.3-1.2,12.6-1.2c13.7,0,25.6,4,34.2,10.5
						c2.5,1.9,4.8,4,6.7,6.3L6558.1-15135.3z"/>
				</g>
				<path class="st12" d="M6531.6-15124.2c-5.2,1.4-10.9,2.2-16.9,2.2c-4.4,0-8.6-0.4-12.6-1.2c-2.2-0.4-4.3-0.9-6.4-1.5
					c1.9,3,4,5.8,6.4,8.3c0.5,0.1,1,0.2,1.5,0.3c9.3,1.5,18.9,1.2,28-1.3c9.5-2.6,18.7-7.7,24.8-15.6c0.6-0.7,1.1-1.5,1.6-2.3
					l-0.4-6.2C6552.2-15133.5,6543.1-15127.3,6531.6-15124.2z"/>
				<path class="st17" d="M6563.4-15152.6c0,6.1-1.9,12.2-5.3,17.3c-13.1,19.9-44.1,18.6-55-3.7c-2.1-4.2-3.2-8.8-3.2-13.7
					c0-6.7,2.2-13,6-18.4c7.5-10.6,22.8-12.1,32-3.1c0.1,0.1,0.3,0.3,0.4,0.4c0.1-0.1,0.3-0.3,0.4-0.4c0,0,0.1-0.1,0.1-0.1
					c4.8-4.6,12.5-4.2,16.8,1C6560.5-15167.4,6563.3-15160.2,6563.4-15152.6z"/>
				<path class="st18" d="M6563.4-15153.4c0-0.8-0.1-1.6-0.2-2.4c-0.6,4.9-2.4,9.7-5.1,13.8c-5.4,8.3-14.7,14.7-26.5,17.9
					c-2.8,0.8-5.7,1.3-8.7,1.7c12.7,3.5,27.2-0.8,35.2-12.9c3.1-4.6,4.9-10.1,5.2-15.6
					C6563.4-15151.8,6563.4-15152.6,6563.4-15153.4z"/>
				<path class="st12" d="M6464.1-15156c0,0.3-0.1,0.6-0.1,1c0,0.1,0,0.2,0,0.3c-0.3,3.3,0.1,6.7,1,9.9c1.9,6.4,6,12,11,16.4
					c2.5,2.2,5.4,4.1,8.5,5.8c-2.2-3.2-4.1-6.6-5.5-10.2C6470.7-15138.8,6465.2-15146.9,6464.1-15156z"/>
				<circle class="st20" cx="6537.1" cy="-15202.4" r="4"/>
				<path class="st18" d="M6540.9-15203.5c-0.4,1.5-1.7,2.6-3.3,2.8c-2,0.2-3.7-1-4.3-2.8c-0.2,0.5-0.2,1.1-0.1,1.6
					c0.3,2.2,2.2,3.7,4.4,3.4c2.2-0.3,3.7-2.2,3.4-4.4C6541-15203.1,6540.9-15203.3,6540.9-15203.5z"/>
				<circle class="st20" cx="6550.8" cy="-15199.5" r="4"/>
				<path class="st18" d="M6554.6-15200.7c-0.4,1.5-1.7,2.6-3.3,2.8c-2,0.2-3.7-1-4.3-2.8c-0.2,0.5-0.2,1.1-0.1,1.6
					c0.3,2.2,2.2,3.7,4.4,3.4c2.2-0.3,3.7-2.2,3.4-4.4C6554.8-15200.2,6554.7-15200.5,6554.6-15200.7z"/>
			</g>
		</g>
		<g id="bee3" transform="matrix(-0.117944,0.022639,0.022639,0.117944,988.231,1149.47)" serif:id="bee">
			<g transform="matrix(1,0,0,1,-256,-256)">
				<g>
					<path class="st12" d="M5101.2-8782.2L5101.2-8782.2c-0.9,0-1.7-0.8-1.7-1.7c0-0.5,0.1-12,6.6-19.9c0.6-0.7,1.7-0.8,2.4-0.2
						c0.7,0.6,0.8,1.7,0.2,2.4c-5.8,7-5.9,17.7-5.9,17.8C5102.8-8782.9,5102.1-8782.2,5101.2-8782.2z"/>
					<path class="st12" d="M5115-8779.3L5115-8779.3c-0.9,0-1.7-0.8-1.7-1.7c0-0.5,0.1-12,6.6-19.9c0.6-0.7,1.7-0.8,2.4-0.2
						c0.7,0.6,0.8,1.7,0.2,2.4c-5.8,7-5.9,17.7-5.9,17.8C5116.6-8780.1,5115.9-8779.3,5115-8779.3z"/>
					<path class="st12" d="M5022.9-8753.8c-0.9,0.2-0.9,1.5,0,1.7l13.8,4.3v-10.4L5022.9-8753.8z"/>
				</g>
				<g transform="matrix(-0.2905,0.9569,-0.9569,-0.2905,437.227,-118.634)">
					
						<ellipse transform="matrix(2.904289e-06 1 -1 2.904289e-06 -11572.9287 7730.6553)" class="st13" cx="-9651.8" cy="-1921.2" rx="13.1" ry="-14.1"/>
				</g>
				<g>
					<path class="st14" d="M5074.1-8786.4c-0.1,0-0.2,0-0.3,0c-0.9-0.2-1.5-1.1-1.3-2c0.1-0.4,1.9-9.9,7.8-15.6
						c0.7-0.7,1.7-0.6,2.4,0c0.6,0.7,0.6,1.7,0,2.4c-5.1,5-6.8,13.8-6.8,13.9C5075.6-8786.9,5074.9-8786.4,5074.1-8786.4z"/>
					<g transform="matrix(-0.2905,-0.9569,0.9569,-0.2905,74.6679,296.312)">
						
							<ellipse transform="matrix(0.8312 0.5559 -0.5559 0.8312 5340.2446 -2780.8413)" class="st15" cx="7250.2" cy="7404.9" rx="16.1" ry="-14.9"/>
					</g>
				</g>
				<path class="st16" d="M5060.4-8781.3c-0.8,0-1.5-0.6-1.7-1.4c0-0.1-2-10.2-7.9-16c-0.7-0.6-0.7-1.7,0-2.4c0.6-0.7,1.7-0.7,2.4,0
					c6.6,6.5,8.7,17.3,8.8,17.7c0.2,0.9-0.4,1.8-1.3,2C5060.6-8781.3,5060.5-8781.3,5060.4-8781.3z"/>
				<path class="st17" d="M5065.6-8744.5v-20.2l8.9-17.4l-1.9-7c-6.5,1.2-12.4,3.3-17.6,6.2l-9.2,6.4l-5.2,16.4v15.5l6.4,14.8l8,7
					c5.2,2.8,11.2,5,17.6,6.2l3.2-7.7L5065.6-8744.5z"/>
				<path class="st18" d="M5075.2-8723c-0.9-0.1-1.8-0.3-2.6-0.4c-6.5-1.2-12.4-3.3-17.6-6.2c-4.6-2.5-8.5-5.5-11.7-8.9l3.8,8.6l8,7
					c0.3,0.2,0.7,0.4,1,0.5c1,0.5,2,1,3.1,1.5c2.8,1.2,5.8,2.3,8.8,3.1c1.5,0.4,3.1,0.8,4.8,1.1L5075.2-8723z"/>
				<g>
					<path class="st19" d="M5045.5-8752.9c0,11.2,3.5,21.6,9.4,30.1c-12.5-6.8-20.6-17.7-20.6-30.1c0-12.3,8.1-23.3,20.6-30.1
						C5049-8774.5,5045.5-8764.1,5045.5-8752.9z"/>
					<path class="st19" d="M5128.5-8735.6c-5.4,8.3-14.7,14.7-26.5,17.9c-5.2,1.4-10.9,2.2-16.9,2.2c-4.4,0-8.6-0.4-12.6-1.2
						c-8.9-9.4-14.4-22.1-14.4-36.2c0-14.1,5.5-26.9,14.4-36.2c4-0.8,8.3-1.2,12.6-1.2c13.7,0,25.6,4,34.2,10.5
						c2.5,1.9,4.8,4,6.7,6.3L5128.5-8735.6z"/>
				</g>
				<path class="st12" d="M5102-8724.5c-5.2,1.4-10.9,2.2-16.9,2.2c-4.4,0-8.6-0.4-12.6-1.2c-2.2-0.4-4.3-0.9-6.4-1.5
					c1.9,3,4,5.8,6.4,8.3c0.5,0.1,1,0.2,1.5,0.3c9.3,1.5,18.9,1.2,28-1.3c9.5-2.6,18.7-7.7,24.8-15.6c0.6-0.7,1.1-1.5,1.6-2.3
					l-0.4-6.2C5122.6-8733.8,5113.5-8727.6,5102-8724.5z"/>
				<path class="st17" d="M5133.8-8752.9c0,6.1-1.9,12.2-5.3,17.3c-13.1,19.9-44.1,18.6-55-3.7c-2.1-4.2-3.2-8.8-3.2-13.7
					c0-6.7,2.2-13,6-18.4c7.5-10.6,22.8-12.1,32-3.1c0.1,0.1,0.3,0.3,0.4,0.4c0.1-0.1,0.3-0.3,0.4-0.4c0,0,0.1-0.1,0.1-0.1
					c4.8-4.6,12.5-4.2,16.8,1C5130.9-8767.7,5133.7-8760.5,5133.8-8752.9z"/>
				<path class="st18" d="M5133.8-8753.7c0-0.8-0.1-1.6-0.2-2.4c-0.6,4.9-2.4,9.7-5.1,13.8c-5.4,8.3-14.7,14.7-26.5,17.9
					c-2.8,0.8-5.7,1.3-8.7,1.7c12.7,3.5,27.2-0.8,35.2-12.9c3.1-4.6,4.9-10.1,5.2-15.6C5133.8-8752.1,5133.8-8752.9,5133.8-8753.7z"
					/>
				<path class="st12" d="M5034.4-8756.3c0,0.3-0.1,0.6-0.1,1c0,0.1,0,0.2,0,0.3c-0.3,3.3,0.1,6.7,1,9.9c1.9,6.4,6,12,11,16.4
					c2.5,2.2,5.4,4.1,8.5,5.8c-2.2-3.2-4.1-6.6-5.5-10.2C5041-8739.1,5035.5-8747.3,5034.4-8756.3z"/>
				<circle class="st20" cx="5107.4" cy="-8802.7" r="4"/>
				<path class="st18" d="M5111.2-8803.8c-0.4,1.5-1.7,2.6-3.3,2.8c-2,0.2-3.7-1-4.3-2.8c-0.2,0.5-0.2,1.1-0.1,1.6
					c0.3,2.2,2.2,3.7,4.4,3.5c2.2-0.3,3.7-2.2,3.4-4.4C5111.3-8803.4,5111.3-8803.6,5111.2-8803.8z"/>
				<circle class="st20" cx="5121.2" cy="-8799.9" r="4"/>
				<path class="st18" d="M5125-8801c-0.4,1.5-1.7,2.6-3.3,2.8c-2,0.2-3.7-1-4.3-2.8c-0.2,0.5-0.2,1.1-0.1,1.6
					c0.3,2.2,2.2,3.7,4.4,3.4c2.2-0.3,3.7-2.2,3.4-4.4C5125.1-8800.6,5125.1-8800.8,5125-8801z"/>
			</g>
		</g>
		<g id="bee4" transform="matrix(-0.0710383,-0.0349361,-0.0349361,0.0710383,1373.29,1239.42)" serif:id="bee">
			<g transform="matrix(1,0,0,1,-256,-256)">
				<g>
					<path class="st12" d="M18167.7-5393.5L18167.7-5393.5c-0.9,0-1.7-0.8-1.7-1.7c0-0.5,0.1-12,6.6-19.9c0.6-0.7,1.7-0.8,2.4-0.2
						c0.7,0.6,0.8,1.7,0.2,2.4c-5.8,7-5.9,17.7-5.9,17.8C18169.4-5394.2,18168.6-5393.5,18167.7-5393.5z"/>
					<path class="st12" d="M18181.5-5390.7L18181.5-5390.7c-0.9,0-1.7-0.8-1.7-1.7c0-0.5,0.1-12,6.6-19.9c0.6-0.7,1.7-0.8,2.4-0.2
						c0.7,0.6,0.8,1.7,0.2,2.4c-5.8,7-5.9,17.7-5.9,17.8C18183.2-5391.4,18182.4-5390.7,18181.5-5390.7z"/>
					<path class="st12" d="M18089.4-5365.1c-0.9,0.2-0.9,1.5,0,1.7l13.8,4.3v-10.4L18089.4-5365.1z"/>
				</g>
				<g transform="matrix(-0.2905,0.9569,-0.9569,-0.2905,437.227,-118.634)">
					<ellipse class="st13" cx="-10205" cy="-15408.3" rx="14.1" ry="-13.1"/>
				</g>
				<g>
					<path class="st14" d="M18140.6-5397.7c-0.1,0-0.2,0-0.3,0c-0.9-0.2-1.5-1.1-1.3-2c0.1-0.4,1.9-9.9,7.8-15.6
						c0.7-0.6,1.7-0.6,2.4,0c0.7,0.7,0.6,1.7,0,2.4c-5.1,5-6.8,13.8-6.8,13.9C18142.1-5398.3,18141.4-5397.7,18140.6-5397.7z"/>
					<g transform="matrix(-0.2905,-0.9569,0.9569,-0.2905,74.6679,296.312)">
						
							<ellipse transform="matrix(0.8312 0.5559 -0.5559 0.8312 10555.834 3075.8149)" class="st15" cx="212.1" cy="18923.3" rx="16.1" ry="-14.9"/>
					</g>
				</g>
				<path class="st16" d="M18126.9-5392.7c-0.8,0-1.5-0.6-1.7-1.4c0-0.1-2-10.2-7.9-16c-0.7-0.6-0.7-1.7,0-2.4s1.7-0.7,2.4,0
					c6.6,6.5,8.7,17.3,8.8,17.7c0.2,0.9-0.4,1.8-1.3,2C18127.1-5392.7,18127-5392.7,18126.9-5392.7z"/>
				<path class="st17" d="M18132.1-5355.9v-20.2l8.9-17.4l-1.9-7c-6.5,1.2-12.4,3.3-17.6,6.2l-9.2,6.4l-5.2,16.4v15.5l6.4,14.8l8,7
					c5.2,2.8,11.2,5,17.6,6.2l3.2-7.7L18132.1-5355.9z"/>
				<path class="st18" d="M18141.7-5334.4c-0.9-0.1-1.8-0.3-2.6-0.4c-6.5-1.2-12.4-3.3-17.6-6.2c-4.6-2.5-8.5-5.5-11.7-8.9l3.8,8.6
					l8,7c0.3,0.2,0.7,0.4,1,0.5c1,0.5,2,1,3.1,1.5c2.8,1.2,5.8,2.3,8.8,3.1c1.5,0.4,3.1,0.8,4.8,1.1L18141.7-5334.4z"/>
				<g>
					<path class="st19" d="M18112-5364.3c0,11.2,3.5,21.6,9.4,30.1c-12.5-6.8-20.6-17.7-20.6-30.1c0-12.3,8.1-23.3,20.6-30.1
						C18115.5-5385.9,18112-5375.5,18112-5364.3z"/>
					<path class="st19" d="M18195-5347c-5.4,8.3-14.7,14.7-26.5,17.9c-5.2,1.4-10.9,2.2-16.9,2.2c-4.4,0-8.6-0.4-12.6-1.2
						c-8.9-9.4-14.4-22.1-14.4-36.2c0-14.1,5.5-26.9,14.4-36.2c4-0.8,8.3-1.2,12.6-1.2c13.7,0,25.6,4,34.2,10.5
						c2.5,1.9,4.8,4,6.7,6.3L18195-5347z"/>
				</g>
				<path class="st12" d="M18168.5-5335.8c-5.2,1.4-10.9,2.2-16.9,2.2c-4.4,0-8.6-0.4-12.6-1.2c-2.2-0.4-4.3-0.9-6.4-1.5
					c1.9,3,4,5.8,6.4,8.3c0.5,0.1,1,0.2,1.5,0.3c9.3,1.5,18.9,1.2,28-1.3c9.5-2.6,18.7-7.7,24.8-15.6c0.6-0.7,1.1-1.5,1.6-2.3
					l-0.4-6.2C18189.1-5345.1,18180-5338.9,18168.5-5335.8z"/>
				<path class="st17" d="M18200.3-5364.3c0,6.1-1.9,12.2-5.3,17.3c-13.1,19.9-44.1,18.6-55-3.7c-2.1-4.2-3.2-8.8-3.2-13.7
					c0-6.7,2.2-13,6-18.4c7.5-10.6,22.8-12.1,32-3.1c0.1,0.1,0.3,0.3,0.4,0.4c0.1-0.1,0.3-0.3,0.4-0.4c0,0,0.1-0.1,0.1-0.1
					c4.8-4.6,12.5-4.2,16.8,1C18197.4-5379.1,18200.2-5371.9,18200.3-5364.3z"/>
				<path class="st18" d="M18200.3-5365.1c0-0.8-0.1-1.6-0.2-2.4c-0.6,4.9-2.4,9.7-5.1,13.8c-5.4,8.3-14.7,14.7-26.5,17.9
					c-2.8,0.8-5.7,1.3-8.7,1.7c12.7,3.5,27.2-0.8,35.2-12.9c3.1-4.6,4.9-10.1,5.2-15.6
					C18200.3-5363.4,18200.3-5364.2,18200.3-5365.1z"/>
				<path class="st12" d="M18101-5367.6c0,0.3-0.1,0.6-0.1,1c0,0.1,0,0.2,0,0.3c-0.3,3.3,0.1,6.7,1,9.9c1.9,6.4,6,12,11,16.4
					c2.5,2.2,5.4,4.1,8.5,5.8c-2.2-3.2-4.1-6.6-5.5-10.2C18107.6-5350.5,18102.1-5358.6,18101-5367.6z"/>
				<circle class="st20" cx="18173.9" cy="-5414" r="4"/>
				<path class="st18" d="M18177.7-5415.1c-0.4,1.5-1.7,2.6-3.3,2.8c-2,0.2-3.7-1-4.3-2.8c-0.2,0.5-0.2,1.1-0.1,1.6
					c0.3,2.2,2.2,3.7,4.4,3.4c2.2-0.3,3.7-2.2,3.4-4.4C18177.9-5414.7,18177.8-5414.9,18177.7-5415.1z"/>
				<circle class="st20" cx="18187.7" cy="-5411.2" r="4"/>
				<path class="st18" d="M18191.5-5412.3c-0.4,1.5-1.7,2.6-3.3,2.8c-2,0.2-3.7-1-4.3-2.8c-0.2,0.5-0.2,1.1-0.1,1.6
					c0.3,2.2,2.2,3.7,4.4,3.4c2.2-0.3,3.7-2.2,3.4-4.4C18191.7-5411.9,18191.6-5412.1,18191.5-5412.3z"/>
			</g>
		</g>
		<g id="bee5" transform="matrix(0.0402682,-0.0191567,0.0191567,0.0402682,1184.55,500.857)" serif:id="bee">
			<g transform="matrix(1,0,0,1,-256,-256)">
				<g>
					<path class="st12" d="M-14172.7-17746.1L-14172.7-17746.1c-0.9,0-1.7-0.8-1.7-1.7c0-0.5,0.1-12,6.6-19.9
						c0.6-0.7,1.7-0.8,2.4-0.2c0.7,0.6,0.8,1.7,0.2,2.4c-5.8,7-5.9,17.7-5.9,17.8C-14171.1-17746.9-14171.8-17746.1-14172.7-17746.1
						z"/>
					<path class="st12" d="M-14158.9-17743.3L-14158.9-17743.3c-0.9,0-1.7-0.8-1.7-1.7c0-0.5,0.1-12,6.6-19.9
						c0.6-0.7,1.7-0.8,2.4-0.2c0.7,0.6,0.8,1.7,0.2,2.4c-5.8,7-5.9,17.7-5.9,17.8C-14157.3-17744-14158-17743.3-14158.9-17743.3z"/>
					<path class="st12" d="M-14251-17717.8c-0.9,0.2-0.9,1.5,0,1.7l13.8,4.3v-10.4L-14251-17717.8z"/>
				</g>
				<g transform="matrix(-0.2905,0.9569,-0.9569,-0.2905,437.227,-118.634)">
					
						<ellipse transform="matrix(-5.846062e-06 1 -1 -5.846062e-06 6494.7871 31755.3809)" class="st13" cx="-12630.2" cy="19125.1" rx="13.1" ry="14.1"/>
				</g>
				<g>
					<path class="st14" d="M-14199.8-17750.3c-0.1,0-0.2,0-0.3,0c-0.9-0.2-1.5-1.1-1.3-2c0.1-0.4,1.9-9.9,7.8-15.6
						c0.7-0.7,1.7-0.6,2.4,0c0.7,0.7,0.6,1.7,0,2.4c-5.1,5-6.8,13.8-6.8,13.9C-14198.3-17750.9-14199-17750.3-14199.8-17750.3z"/>
					<g transform="matrix(-0.2905,-0.9569,0.9569,-0.2905,74.6679,296.312)">
						
							<ellipse transform="matrix(5.494317e-06 -1 1 5.494317e-06 29859.5098 12992.7344)" class="st15" cx="21426.2" cy="-8433.5" rx="14.9" ry="16.1"/>
					</g>
				</g>
				<path class="st16" d="M-14213.5-17745.3c-0.8,0-1.5-0.6-1.7-1.4c0-0.1-2-10.2-7.9-16c-0.7-0.7-0.7-1.7,0-2.4
					c0.7-0.7,1.7-0.7,2.4,0c6.6,6.5,8.7,17.3,8.8,17.7c0.2,0.9-0.4,1.8-1.3,2C-14213.3-17745.3-14213.4-17745.3-14213.5-17745.3z"/>
				<path class="st17" d="M-14208.3-17708.5v-20.2l8.9-17.4l-1.9-7c-6.5,1.2-12.4,3.3-17.6,6.2l-9.2,6.4l-5.2,16.4v15.5l6.4,14.8
					l8,7c5.2,2.8,11.2,5,17.6,6.2l3.2-7.7L-14208.3-17708.5z"/>
				<path class="st18" d="M-14198.7-17687c-0.9-0.1-1.8-0.3-2.6-0.4c-6.5-1.2-12.4-3.3-17.6-6.2c-4.6-2.5-8.5-5.5-11.7-8.9l3.7,8.6
					l8,7c0.3,0.2,0.7,0.4,1,0.5c1,0.5,2,1,3.1,1.5c2.8,1.2,5.8,2.3,8.8,3.1c1.5,0.4,3.1,0.8,4.8,1.1L-14198.7-17687z"/>
				<g>
					<path class="st19" d="M-14228.4-17716.9c0,11.2,3.5,21.6,9.4,30.1c-12.5-6.8-20.6-17.7-20.6-30.1c0-12.3,8.1-23.3,20.6-30.1
						C-14224.9-17738.5-14228.4-17728.1-14228.4-17716.9z"/>
					<path class="st19" d="M-14145.4-17699.6c-5.4,8.3-14.7,14.7-26.5,17.9c-5.2,1.4-10.9,2.2-16.9,2.2c-4.4,0-8.6-0.4-12.6-1.2
						c-8.9-9.4-14.4-22.1-14.4-36.2s5.5-26.9,14.4-36.2c4-0.8,8.3-1.2,12.6-1.2c13.7,0,25.6,4,34.2,10.5c2.5,1.9,4.8,4,6.7,6.3
						L-14145.4-17699.6z"/>
				</g>
				<path class="st12" d="M-14171.9-17688.4c-5.2,1.4-10.9,2.2-16.9,2.2c-4.4,0-8.6-0.4-12.6-1.2c-2.2-0.4-4.3-0.9-6.4-1.5
					c1.9,3,4,5.8,6.4,8.3c0.5,0.1,1,0.2,1.5,0.3c9.3,1.5,18.9,1.2,28-1.3c9.5-2.6,18.7-7.7,24.8-15.6c0.6-0.7,1.1-1.5,1.6-2.3
					l-0.4-6.2C-14151.3-17697.8-14160.4-17691.5-14171.9-17688.4z"/>
				<path class="st17" d="M-14140.1-17716.9c0,6.1-1.9,12.2-5.3,17.3c-13.1,19.9-44.1,18.6-55-3.7c-2.1-4.2-3.2-8.8-3.2-13.7
					c0-6.7,2.2-13,6-18.4c7.5-10.6,22.8-12.1,32-3.1c0.1,0.1,0.3,0.3,0.4,0.4c0.1-0.2,0.3-0.3,0.4-0.4c0,0,0.1-0.1,0.1-0.1
					c4.8-4.6,12.5-4.2,16.8,1C-14143-17731.7-14140.2-17724.5-14140.1-17716.9z"/>
				<path class="st18" d="M-14140.1-17717.7c0-0.8-0.1-1.6-0.2-2.4c-0.6,4.9-2.4,9.7-5.1,13.8c-5.4,8.3-14.7,14.7-26.5,17.9
					c-2.8,0.8-5.7,1.3-8.7,1.7c12.7,3.5,27.2-0.8,35.2-12.9c3.1-4.6,4.9-10.1,5.2-15.6
					C-14140.1-17716-14140.1-17716.9-14140.1-17717.7z"/>
				<path class="st12" d="M-14239.5-17720.3c0,0.3-0.1,0.6-0.1,1c0,0.1,0,0.2,0,0.3c-0.3,3.3,0.1,6.7,1,9.9c1.9,6.4,6,12,11,16.4
					c2.5,2.2,5.4,4.1,8.5,5.8c-2.2-3.2-4.1-6.6-5.5-10.2C-14232.9-17703.1-14238.4-17711.2-14239.5-17720.3z"/>
				<circle class="st20" cx="-14166.5" cy="-17766.6" r="4"/>
				<path class="st18" d="M-14162.7-17767.8c-0.4,1.5-1.7,2.6-3.3,2.8c-2,0.2-3.7-1-4.3-2.8c-0.2,0.5-0.2,1.1-0.1,1.6
					c0.3,2.2,2.2,3.7,4.4,3.5c2.2-0.3,3.7-2.2,3.4-4.4C-14162.6-17767.3-14162.6-17767.6-14162.7-17767.8z"/>
				<circle class="st20" cx="-14152.7" cy="-17763.8" r="4"/>
				<path class="st18" d="M-14148.9-17764.9c-0.4,1.5-1.7,2.6-3.3,2.8c-2,0.2-3.7-1-4.3-2.8c-0.2,0.5-0.2,1.1-0.1,1.6
					c0.3,2.2,2.2,3.7,4.4,3.4c2.2-0.3,3.7-2.2,3.4-4.4C-14148.8-17764.5-14148.8-17764.7-14148.9-17764.9z"/>
			</g>
		</g>
		<g id="bee6" transform="matrix(0.0600685,-0.0256017,0.0256017,0.0600685,866.855,1073.15)" serif:id="bee">
			<g transform="matrix(1,0,0,1,-256,-256)">
				<g>
					<path class="st12" d="M-3899-16441.7L-3899-16441.7c-0.9,0-1.7-0.8-1.7-1.7c0-0.5,0.1-12,6.6-19.9c0.6-0.7,1.7-0.8,2.4-0.2
						c0.7,0.6,0.8,1.7,0.2,2.4c-5.8,7-5.9,17.7-5.9,17.8C-3897.3-16442.5-3898-16441.7-3899-16441.7z"/>
					<path class="st12" d="M-3885.2-16438.9L-3885.2-16438.9c-0.9,0-1.7-0.8-1.7-1.7c0-0.5,0.1-12,6.6-19.9c0.6-0.7,1.7-0.8,2.4-0.2
						c0.7,0.6,0.8,1.7,0.2,2.4c-5.8,7-5.9,17.7-5.9,17.8C-3883.5-16439.6-3884.2-16438.9-3885.2-16438.9z"/>
					<path class="st12" d="M-3977.2-16413.4c-0.9,0.2-0.9,1.5,0,1.7l13.8,4.3v-10.4L-3977.2-16413.4z"/>
				</g>
				<g transform="matrix(-0.2905,0.9569,-0.9569,-0.2905,437.227,-118.634)">
					
						<ellipse transform="matrix(-5.056244e-06 1 -1 -5.056244e-06 -5450.8975 23282.1738)" class="st13" cx="-14366.5" cy="8915.7" rx="13.1" ry="14.1"/>
				</g>
				<g>
					<path class="st14" d="M-3926-16445.9c-0.1,0-0.2,0-0.3,0c-0.9-0.2-1.5-1.1-1.3-2c0.1-0.4,1.9-9.9,7.8-15.6
						c0.7-0.7,1.7-0.6,2.4,0c0.6,0.7,0.6,1.7,0,2.4c-5.1,5-6.8,13.8-6.8,13.9C-3924.5-16446.5-3925.2-16445.9-3926-16445.9z"/>
					<g transform="matrix(-0.2905,-0.9569,0.9569,-0.2905,74.6679,296.312)">
						
							<ellipse transform="matrix(4.704510e-06 -1 1 4.704510e-06 16175.4453 18211.7734)" class="st15" cx="17193.7" cy="1018.1" rx="14.9" ry="16.1"/>
					</g>
				</g>
				<path class="st16" d="M-3939.8-16440.9c-0.8,0-1.5-0.6-1.7-1.4c0-0.1-2-10.2-7.9-16c-0.7-0.7-0.7-1.7,0-2.4
					c0.7-0.7,1.7-0.7,2.4,0c6.6,6.5,8.7,17.3,8.8,17.7c0.2,0.9-0.4,1.8-1.3,2C-3939.6-16440.9-3939.7-16440.9-3939.8-16440.9z"/>
				<path class="st17" d="M-3934.6-16404.1v-20.2l8.9-17.4l-1.9-7c-6.5,1.2-12.4,3.3-17.6,6.2l-9.2,6.4l-5.2,16.4v15.5l6.4,14.8l8,7
					c5.2,2.8,11.2,5,17.6,6.2l3.2-7.7L-3934.6-16404.1z"/>
				<path class="st18" d="M-3925-16382.6c-0.9-0.1-1.8-0.3-2.6-0.4c-6.5-1.2-12.4-3.3-17.6-6.2c-4.6-2.5-8.5-5.5-11.7-8.9l3.8,8.6
					l8,7c0.3,0.2,0.7,0.4,1,0.5c1,0.5,2,1,3.1,1.5c2.8,1.2,5.8,2.3,8.8,3.1c1.5,0.4,3.1,0.8,4.8,1.1L-3925-16382.6z"/>
				<g>
					<path class="st19" d="M-3954.6-16412.5c0,11.2,3.5,21.6,9.4,30.1c-12.5-6.8-20.6-17.7-20.6-30.1c0-12.3,8.1-23.3,20.6-30.1
						C-3951.2-16434.1-3954.6-16423.7-3954.6-16412.5z"/>
					<path class="st19" d="M-3871.6-16395.2c-5.4,8.3-14.7,14.7-26.5,17.9c-5.2,1.4-10.9,2.2-16.9,2.2c-4.4,0-8.6-0.4-12.6-1.2
						c-8.9-9.4-14.4-22.1-14.4-36.2c0-14.1,5.5-26.9,14.4-36.2c4-0.8,8.3-1.2,12.6-1.2c13.7,0,25.6,4,34.2,10.5
						c2.5,1.9,4.8,4,6.7,6.3L-3871.6-16395.2z"/>
				</g>
				<path class="st12" d="M-3898.1-16384c-5.2,1.4-10.9,2.2-16.9,2.2c-4.4,0-8.6-0.4-12.6-1.2c-2.2-0.4-4.3-0.9-6.4-1.5
					c1.9,3,4,5.8,6.4,8.3c0.5,0.1,1,0.2,1.5,0.3c9.3,1.5,18.9,1.2,28-1.3c9.5-2.6,18.7-7.7,24.8-15.6c0.6-0.7,1.1-1.5,1.6-2.3
					l-0.4-6.2C-3877.5-16393.4-3886.7-16387.1-3898.1-16384z"/>
				<path class="st17" d="M-3866.4-16412.5c0,6.1-1.9,12.2-5.3,17.3c-13.1,19.9-44.1,18.6-55-3.7c-2.1-4.2-3.2-8.8-3.2-13.7
					c0-6.7,2.2-13,6-18.4c7.5-10.6,22.8-12.1,32-3.1c0.1,0.1,0.3,0.3,0.4,0.4c0.1-0.1,0.3-0.3,0.4-0.4c0,0,0.1-0.1,0.1-0.1
					c4.8-4.6,12.5-4.2,16.8,1C-3869.2-16427.3-3866.4-16420.1-3866.4-16412.5z"/>
				<path class="st18" d="M-3866.4-16413.3c0-0.8-0.1-1.6-0.2-2.4c-0.6,4.9-2.4,9.7-5.1,13.8c-5.4,8.3-14.7,14.7-26.5,17.9
					c-2.8,0.8-5.7,1.3-8.7,1.7c12.7,3.5,27.2-0.8,35.2-12.9c3.1-4.6,4.9-10.1,5.2-15.6
					C-3866.4-16411.6-3866.3-16412.5-3866.4-16413.3z"/>
				<path class="st12" d="M-3965.7-16415.9c0,0.3-0.1,0.6-0.1,1c0,0.1,0,0.2,0,0.3c-0.3,3.3,0.1,6.7,1,9.9c1.9,6.4,6,12,11,16.4
					c2.5,2.2,5.4,4.1,8.5,5.8c-2.2-3.2-4.1-6.6-5.5-10.2C-3959.1-16398.7-3964.6-16406.8-3965.7-16415.9z"/>
				<circle class="st20" cx="-3892.7" cy="-16462.2" r="4"/>
				<path class="st18" d="M-3888.9-16463.4c-0.4,1.5-1.7,2.6-3.3,2.8c-2,0.2-3.7-1-4.3-2.8c-0.2,0.5-0.2,1.1-0.1,1.6
					c0.3,2.2,2.2,3.7,4.4,3.4c2.2-0.3,3.7-2.2,3.4-4.4C-3888.8-16462.9-3888.8-16463.2-3888.9-16463.4z"/>
				<circle class="st20" cx="-3878.9" cy="-16459.4" r="4"/>
				<path class="st18" d="M-3875.1-16460.5c-0.4,1.5-1.7,2.6-3.3,2.8c-2,0.2-3.7-1-4.3-2.8c-0.2,0.5-0.2,1.1-0.1,1.6
					c0.3,2.2,2.2,3.7,4.4,3.4s3.7-2.2,3.4-4.4C-3875-16460.1-3875-16460.3-3875.1-16460.5z"/>
			</g>
		</g>
		<g id="bee7" transform="matrix(0.0746851,-0.0318314,0.0318314,0.0746851,2030.43,893.68)" serif:id="bee">
			<g transform="matrix(1,0,0,1,-256,-256)">
				<g>
					<path class="st12" d="M-14071.2-15982L-14071.2-15982c-0.9,0-1.7-0.8-1.7-1.7c0-0.5,0.1-12,6.6-19.9c0.6-0.7,1.7-0.8,2.4-0.2
						c0.7,0.6,0.8,1.7,0.2,2.4c-5.8,7-5.9,17.7-5.9,17.8C-14069.5-15982.7-14070.3-15982-14071.2-15982z"/>
					<path class="st12" d="M-14057.4-15979.1L-14057.4-15979.1c-0.9,0-1.7-0.8-1.7-1.7c0-0.5,0.1-12,6.6-19.9
						c0.6-0.7,1.7-0.8,2.4-0.2c0.7,0.6,0.8,1.7,0.2,2.4c-5.8,7-5.9,17.7-5.9,17.8C-14055.8-15979.9-14056.5-15979.1-14057.4-15979.1
						z"/>
					<path class="st12" d="M-14149.5-15953.6c-0.9,0.2-0.9,1.5,0,1.7l13.8,4.3v-10.4L-14149.5-15953.6z"/>
				</g>
				<g transform="matrix(-0.2905,0.9569,-0.9569,-0.2905,437.227,-118.634)">
					
						<ellipse transform="matrix(6.218639e-06 1 -1 6.218639e-06 7543.8818 29487.0215)" class="st13" cx="-10971.7" cy="18515.5" rx="13.1" ry="14.1"/>
				</g>
				<g>
					<path class="st14" d="M-14098.3-15986.2c-0.1,0-0.2,0-0.3,0c-0.9-0.2-1.5-1.1-1.3-2c0.1-0.4,1.9-9.9,7.8-15.6
						c0.7-0.7,1.7-0.6,2.4,0c0.7,0.7,0.6,1.7,0,2.4c-5.1,5-6.8,13.8-6.8,13.9C-14096.8-15986.7-14097.5-15986.2-14098.3-15986.2z"/>
					<g transform="matrix(-0.2905,-0.9569,0.9569,-0.2905,74.6679,296.312)">
						
							<ellipse transform="matrix(-6.570371e-06 -1 1 -6.570371e-06 28557.5703 10859.7832)" class="st15" cx="19708.6" cy="-8848.8" rx="14.9" ry="16.1"/>
					</g>
				</g>
				<path class="st16" d="M-14112-15981.1c-0.8,0-1.5-0.6-1.7-1.4c0-0.1-2-10.2-7.9-16c-0.7-0.6-0.7-1.7,0-2.4
					c0.7-0.7,1.7-0.7,2.4,0c6.6,6.5,8.7,17.3,8.8,17.7c0.2,0.9-0.4,1.8-1.3,2C-14111.8-15981.1-14111.9-15981.1-14112-15981.1z"/>
				<path class="st17" d="M-14106.8-15944.4v-20.2l8.9-17.4l-1.9-7c-6.5,1.2-12.4,3.3-17.6,6.2l-9.2,6.4l-5.2,16.4v15.5l6.4,14.8
					l8,7c5.2,2.8,11.2,5,17.6,6.2l3.2-7.7L-14106.8-15944.4z"/>
				<path class="st18" d="M-14097.2-15922.8c-0.9-0.1-1.8-0.3-2.6-0.4c-6.5-1.2-12.4-3.3-17.6-6.2c-4.6-2.5-8.5-5.5-11.7-8.9
					l3.8,8.6l8,7c0.3,0.2,0.7,0.4,1,0.5c1,0.5,2,1,3.1,1.5c2.8,1.2,5.8,2.3,8.8,3.1c1.5,0.4,3.1,0.8,4.8,1.1L-14097.2-15922.8z"/>
				<g>
					<path class="st19" d="M-14126.9-15952.8c0,11.2,3.5,21.6,9.4,30.1c-12.5-6.8-20.6-17.7-20.6-30.1c0-12.3,8.1-23.3,20.6-30.1
						C-14123.4-15974.3-14126.9-15964-14126.9-15952.8z"/>
					<path class="st19" d="M-14043.9-15935.4c-5.4,8.3-14.7,14.7-26.5,17.9c-5.2,1.4-10.9,2.2-16.9,2.2c-4.4,0-8.6-0.4-12.6-1.2
						c-8.9-9.4-14.4-22.1-14.4-36.2c0-14.1,5.5-26.9,14.4-36.2c4-0.8,8.3-1.2,12.6-1.2c13.7,0,25.6,4,34.2,10.5
						c2.5,1.9,4.8,4,6.7,6.3L-14043.9-15935.4z"/>
				</g>
				<path class="st12" d="M-14070.4-15924.3c-5.2,1.4-10.9,2.2-16.9,2.2c-4.4,0-8.6-0.4-12.6-1.2c-2.2-0.4-4.3-0.9-6.4-1.5
					c1.9,3,4,5.8,6.4,8.3c0.5,0.1,1,0.2,1.5,0.3c9.3,1.5,18.9,1.2,28-1.3c9.5-2.6,18.7-7.7,24.8-15.6c0.6-0.7,1.1-1.5,1.6-2.3
					l-0.4-6.2C-14049.8-15933.6-14058.9-15927.4-14070.4-15924.3z"/>
				<path class="st17" d="M-14038.6-15952.8c0,6.1-1.9,12.2-5.3,17.3c-13.1,19.9-44.1,18.6-55-3.7c-2.1-4.2-3.2-8.8-3.2-13.7
					c0-6.7,2.2-13,6-18.4c7.5-10.6,22.8-12.1,32-3.1c0.1,0.1,0.3,0.3,0.4,0.4c0.1-0.1,0.3-0.3,0.4-0.4c0,0,0.1-0.1,0.1-0.1
					c4.8-4.6,12.5-4.2,16.8,1C-14041.5-15967.6-14038.7-15960.3-14038.6-15952.8z"/>
				<path class="st18" d="M-14038.6-15953.5c0-0.8-0.1-1.6-0.2-2.4c-0.6,4.9-2.4,9.7-5.1,13.8c-5.4,8.3-14.7,14.7-26.5,17.9
					c-2.8,0.8-5.7,1.3-8.7,1.7c12.7,3.5,27.2-0.8,35.2-12.9c3.1-4.6,4.9-10.1,5.2-15.6
					C-14038.6-15951.9-14038.6-15952.7-14038.6-15953.5z"/>
				<path class="st12" d="M-14137.9-15956.1c0,0.3-0.1,0.6-0.1,1c0,0.1,0,0.2,0,0.3c-0.2,3.3,0.1,6.7,1,9.9c1.9,6.4,6,12,11,16.4
					c2.5,2.2,5.4,4.1,8.5,5.8c-2.2-3.2-4.1-6.6-5.5-10.2C-14131.4-15939-14136.8-15947.1-14137.9-15956.1z"/>
				<circle class="st20" cx="-14065" cy="-16002.5" r="4"/>
				<path class="st18" d="M-14061.2-16003.6c-0.4,1.5-1.7,2.6-3.3,2.8c-2,0.2-3.7-1-4.3-2.8c-0.2,0.5-0.2,1.1-0.1,1.6
					c0.3,2.2,2.2,3.7,4.4,3.4c2.2-0.3,3.7-2.2,3.4-4.4C-14061.1-16003.2-14061.1-16003.4-14061.2-16003.6z"/>
				<circle class="st20" cx="-14051.2" cy="-15999.7" r="4"/>
				<path class="st18" d="M-14047.4-16000.8c-0.4,1.5-1.7,2.6-3.3,2.8c-2,0.2-3.7-1-4.3-2.8c-0.2,0.5-0.2,1.1-0.1,1.6
					c0.3,2.2,2.2,3.7,4.4,3.4c2.2-0.3,3.7-2.2,3.4-4.4C-14047.3-16000.4-14047.3-16000.6-14047.4-16000.8z"/>
			</g>
		</g>
		<g transform="matrix(2.85306,0,0,2.85306,-4270.03,-1198.5)">
			<path class="st0" d="M1579.5,512.3l0.1-2.7l-25.6-6.9l0,2.8L1579.5,512.3z"/>
		</g>
	</g>
</g>
</svg>
