<svg width="337" height="147" viewBox="0 0 337 147" fill="none" xmlns="http://www.w3.org/2000/svg">
    <path
        d="M85.416 71.736C85.8 75.384 85.272 79.416 83.832 83.832C81.528 90.84 77.304 96.84 71.16 101.832C65.976 106.152 59.4 109.464 51.432 111.768C42.696 114.456 32.424 115.8 20.616 115.8C15.528 115.8 10.392 115.512 5.208 114.936C3.768 114.744 2.616 114.12 1.752 113.064C0.888 112.008 0.504 110.76 0.6 109.32C0.696 107.976 1.32 106.824 2.472 105.864C3.624 105 4.872 104.664 6.216 104.856C13.128 105.816 20.232 106.008 27.528 105.432C34.92 104.856 41.688 103.8 47.832 102.264C54.072 100.632 59.544 97.992 64.248 94.344C69.048 90.6 72.36 86.04 74.184 80.664C75.912 75.288 75.576 71.112 73.176 68.136C70.104 64.104 63.72 61.368 54.024 59.928C46.92 58.872 37.992 58.632 27.24 59.208C21.48 76.968 17.88 90.408 16.44 99.528C16.248 100.776 15.672 101.832 14.712 102.696C13.752 103.464 12.648 103.848 11.4 103.848C11.304 103.848 11.16 103.848 10.968 103.848C10.776 103.752 10.632 103.704 10.536 103.704C9.096 103.512 7.944 102.84 7.08 101.688C6.312 100.536 6.024 99.24 6.216 97.8C9 81.192 17.544 53.304 31.848 14.136C27.144 15.096 21.912 16.392 16.152 18.024C14.808 18.408 13.512 18.264 12.264 17.592C11.112 16.92 10.296 15.912 9.816 14.568C9.432 13.224 9.576 11.928 10.248 10.68C11.016 9.43199 12.072 8.61599 13.416 8.23199C28.872 3.912 41.64 1.512 51.72 1.03199C63.048 0.647996 71.448 2.664 76.92 7.08C79.8 9.48 81.768 12.312 82.824 15.576C83.976 18.744 84.408 22.392 84.12 26.52C83.544 33.912 79.8 40.2 72.888 45.384C70.2 47.4 66.744 49.32 62.52 51.144C71.352 53.448 77.64 57 81.384 61.8C83.688 64.968 85.032 68.28 85.416 71.736ZM50.28 44.664C65.448 40.248 73.32 33.912 73.896 25.656C74.376 20.76 73.224 17.208 70.44 15C67.08 12.216 60.984 10.968 52.152 11.256C49.56 11.352 46.68 11.64 43.512 12.12C38.808 24.792 34.536 36.936 30.696 48.552C38.472 47.592 45 46.296 50.28 44.664ZM108.944 113.064C115.856 113.064 122.624 110.952 129.248 106.728C137.216 101.832 143.12 94.872 146.96 85.848C147.44 84.504 147.392 83.208 146.816 81.96C146.336 80.616 145.472 79.704 144.224 79.224C142.88 78.648 141.536 78.648 140.192 79.224C138.944 79.704 138.032 80.616 137.456 81.96C134.48 88.872 130.16 94.104 124.496 97.656C118.928 101.112 113.744 102.84 108.944 102.84C106.832 102.84 104.72 102.408 102.608 101.544C100.496 100.584 99.0083 99.24 98.1443 97.512C97.3763 96.168 97.0883 94.632 97.2803 92.904C110.912 90.312 120.608 86.712 126.368 82.104C132.224 77.496 135.632 72.792 136.592 67.992C137.168 64.92 136.976 62.184 136.016 59.784C135.152 57.096 133.616 55.032 131.408 53.592C127.472 51 122.72 50.52 117.152 52.152C110.24 54.36 103.616 59.832 97.2803 68.568C92.2883 75.384 89.1202 81.72 87.7762 87.576C86.4322 93.24 86.8642 98.136 89.0722 102.264C90.8962 105.912 93.6803 108.6 97.4243 110.328C101.264 112.152 105.104 113.064 108.944 113.064ZM123.056 61.512C124.304 61.512 125.216 61.704 125.792 62.088C126.656 62.664 126.896 63.912 126.512 65.832C125.936 68.712 123.536 71.592 119.312 74.472C115.088 77.352 108.992 79.752 101.024 81.672C102.368 79.176 103.904 76.776 105.632 74.472C110.528 67.656 115.328 63.48 120.032 61.944C121.184 61.656 122.192 61.512 123.056 61.512ZM155.069 113.064C161.981 113.064 168.749 110.952 175.373 106.728C183.341 101.832 189.245 94.872 193.085 85.848C193.565 84.504 193.517 83.208 192.941 81.96C192.461 80.616 191.597 79.704 190.349 79.224C189.005 78.648 187.661 78.648 186.317 79.224C185.069 79.704 184.157 80.616 183.581 81.96C180.605 88.872 176.285 94.104 170.621 97.656C165.053 101.112 159.869 102.84 155.069 102.84C152.957 102.84 150.845 102.408 148.733 101.544C146.621 100.584 145.133 99.24 144.269 97.512C143.501 96.168 143.213 94.632 143.405 92.904C157.037 90.312 166.733 86.712 172.493 82.104C178.349 77.496 181.757 72.792 182.717 67.992C183.293 64.92 183.101 62.184 182.141 59.784C181.277 57.096 179.741 55.032 177.533 53.592C173.597 51 168.845 50.52 163.277 52.152C156.365 54.36 149.741 59.832 143.405 68.568C138.413 75.384 135.245 81.72 133.901 87.576C132.557 93.24 132.989 98.136 135.197 102.264C137.021 105.912 139.805 108.6 143.549 110.328C147.389 112.152 151.229 113.064 155.069 113.064ZM169.181 61.512C170.429 61.512 171.341 61.704 171.917 62.088C172.781 62.664 173.021 63.912 172.637 65.832C172.061 68.712 169.661 71.592 165.437 74.472C161.213 77.352 155.117 79.752 147.149 81.672C148.493 79.176 150.029 76.776 151.757 74.472C156.653 67.656 161.453 63.48 166.157 61.944C167.309 61.656 168.317 61.512 169.181 61.512ZM201.194 113.064C208.106 113.064 214.874 110.952 221.498 106.728C229.466 101.832 235.37 94.872 239.21 85.848C239.69 84.504 239.642 83.208 239.066 81.96C238.586 80.616 237.722 79.704 236.474 79.224C235.13 78.648 233.786 78.648 232.442 79.224C231.194 79.704 230.282 80.616 229.706 81.96C226.73 88.872 222.41 94.104 216.746 97.656C211.178 101.112 205.994 102.84 201.194 102.84C199.082 102.84 196.97 102.408 194.858 101.544C192.746 100.584 191.258 99.24 190.394 97.512C189.626 96.168 189.338 94.632 189.53 92.904C203.162 90.312 212.858 86.712 218.618 82.104C224.474 77.496 227.882 72.792 228.842 67.992C229.418 64.92 229.226 62.184 228.266 59.784C227.402 57.096 225.866 55.032 223.658 53.592C219.722 51 214.97 50.52 209.402 52.152C202.49 54.36 195.866 59.832 189.53 68.568C184.538 75.384 181.37 81.72 180.026 87.576C178.682 93.24 179.114 98.136 181.322 102.264C183.146 105.912 185.93 108.6 189.674 110.328C193.514 112.152 197.354 113.064 201.194 113.064ZM215.306 61.512C216.554 61.512 217.466 61.704 218.042 62.088C218.906 62.664 219.146 63.912 218.762 65.832C218.186 68.712 215.786 71.592 211.562 74.472C207.338 77.352 201.242 79.752 193.274 81.672C194.618 79.176 196.154 76.776 197.882 74.472C202.778 67.656 207.578 63.48 212.282 61.944C213.434 61.656 214.442 61.512 215.306 61.512ZM246.345 114.504C254.025 114.504 259.545 111.96 262.905 106.872C268.857 98.04 267.561 82.872 259.017 61.368C258.345 59.448 258.009 58.392 258.009 58.2C259.257 53.496 258.777 50.232 256.569 48.408C254.553 46.488 252.345 46.392 249.945 48.12C247.929 49.464 247.017 51.96 247.209 55.608C247.209 55.8 247.209 56.088 247.209 56.472C247.305 56.856 247.353 57.144 247.353 57.336C247.065 58.296 246.633 59.256 246.057 60.216C242.025 68.472 234.777 77.4 224.313 87C223.257 87.96 222.729 89.16 222.729 90.6C222.633 91.944 223.065 93.144 224.025 94.2C224.985 95.256 226.185 95.832 227.625 95.928C228.969 95.928 230.169 95.448 231.225 94.488C237.465 88.824 242.649 83.4 246.777 78.216C248.697 75.72 250.329 73.32 251.673 71.016C253.497 76.2 254.793 80.904 255.561 85.128C256.905 92.808 256.521 98.136 254.409 101.112C253.161 103.224 250.473 104.28 246.345 104.28C244.041 104.28 242.169 104.04 240.729 103.56C239.289 102.984 238.377 102.456 237.993 101.976C237.609 101.496 237.177 100.824 236.697 99.96C236.025 98.712 235.017 97.896 233.673 97.512C232.329 97.032 231.033 97.128 229.785 97.8C228.537 98.472 227.721 99.48 227.337 100.824C226.857 102.072 226.953 103.368 227.625 104.712C231.081 111.24 237.321 114.504 246.345 114.504ZM274.441 146.76C275.497 146.76 276.265 146.664 276.745 146.472C279.145 145.992 281.545 144.888 283.945 143.16C286.441 141.528 288.697 139.512 290.713 137.112C292.729 134.808 294.361 132.696 295.609 130.776C296.953 128.952 298.201 127.08 299.353 125.16C301.369 121.8 303.193 118.152 304.825 114.216C320.281 106.632 330.649 96.888 335.929 84.984C336.505 83.736 336.505 82.44 335.929 81.096C335.449 79.752 334.585 78.792 333.337 78.216C332.089 77.64 330.793 77.64 329.449 78.216C328.105 78.696 327.145 79.56 326.569 80.808C323.305 88.2 317.785 94.392 310.009 99.384C311.737 93.72 313.225 87.672 314.473 81.24L314.761 80.952C316.873 77.784 318.313 74.76 319.081 71.88C319.849 68.52 319.561 65.832 318.217 63.816C316.681 61.608 314.617 60.84 312.025 61.512C308.473 62.376 306.265 66.12 305.401 72.744C305.209 74.664 305.017 76.152 304.825 77.208C296.569 88.536 288.265 94.296 279.913 94.488C279.049 92.952 279.049 89.976 279.913 85.56C281.257 79.128 284.233 73.08 288.841 67.416C289.801 66.264 290.185 65.016 289.993 63.672C289.801 62.232 289.177 61.08 288.121 60.216C287.065 59.256 285.817 58.872 284.377 59.064C282.937 59.256 281.785 59.88 280.921 60.936C275.833 67.368 272.329 74.232 270.409 81.528C268.489 88.632 268.585 94.44 270.697 98.952C272.521 102.792 275.449 104.712 279.481 104.712C285.913 104.712 291.961 102.792 297.625 98.952L300.073 97.224C298.729 101.448 297.625 104.616 296.761 106.728C295.897 107.208 294.601 107.784 292.873 108.456C291.241 109.224 290.233 109.704 289.849 109.896C288.889 110.28 287.641 110.808 286.105 111.48C284.569 112.152 283.609 112.584 283.225 112.776C278.233 115.272 273.913 118.632 270.265 122.856C266.713 127.176 264.745 131.256 264.361 135.096C263.881 139.128 265.081 142.248 267.961 144.456C269.785 145.992 271.945 146.76 274.441 146.76ZM274.873 136.536H274.441C274.441 135 275.353 133.032 277.177 130.632C280.153 126.888 283.657 124.008 287.689 121.992L289.993 120.984C287.113 125.592 284.281 129.24 281.497 131.928C278.809 134.712 276.601 136.248 274.873 136.536Z"
        fill="white" />
</svg>